<?xml version="1.0" standalone="no"?>
<!DOCTYPE svg PUBLIC "-//W3C//DTD SVG 20010904//EN"
 "http://www.w3.org/TR/2001/REC-SVG-20010904/DTD/svg10.dtd">
<svg version="1.0" xmlns="http://www.w3.org/2000/svg"
 width="2100.000000pt" height="525.000000pt" viewBox="0 0 2100.000000 525.000000"
 preserveAspectRatio="xMidYMid meet">

<g transform="translate(0.000000,525.000000) scale(0.100000,-0.100000)"
fill="#000000" stroke="none">
<path d="M2554 4720 c-330 -27 -556 -205 -618 -485 -12 -56 -17 -197 -25 -685
-16 -934 -16 -1074 4 -1156 36 -147 115 -262 223 -328 160 -97 328 -106 717
-38 271 47 366 75 456 133 73 47 171 138 200 186 22 35 39 43 39 18 0 -8 9
-39 21 -69 57 -153 226 -246 451 -246 78 0 444 68 563 105 116 36 197 87 306
195 108 107 179 207 256 360 29 58 52 102 53 99 0 -4 -32 -78 -70 -165 -65
-147 -180 -471 -180 -508 0 -19 15 -19 445 -6 l280 8 185 46 c216 55 293 89
400 180 110 92 167 169 367 492 425 685 518 874 552 1116 21 152 -29 288 -146
399 -106 100 -257 169 -532 245 -156 43 -283 53 -702 56 l-317 3 46 -90 c153
-306 162 -594 30 -980 -32 -95 -228 -528 -235 -521 -3 2 4 21 15 43 47 90 174
419 202 519 79 287 80 472 3 618 -15 28 -63 87 -108 131 -62 62 -100 91 -170
127 -114 58 -170 76 -440 140 l-220 52 -185 0 c-176 1 -189 -1 -263 -27 -95
-33 -140 -61 -194 -120 -52 -56 -87 -125 -109 -211 l-17 -67 -32 48 c-75 110
-214 210 -360 258 -140 45 -742 147 -795 133 -3 0 -46 -4 -96 -8z m2254 -470
c38 -56 45 -104 39 -260 -11 -258 -57 -424 -266 -960 -163 -415 -224 -529
-247 -458 -16 51 -1 121 72 339 193 577 254 847 254 1139 0 134 18 187 72 220
40 24 47 23 76 -20z m-1777 -106 c7 -35 9 -114 6 -196 -3 -76 -2 -138 1 -138
4 -1 93 -7 197 -14 111 -8 271 -11 386 -8 l196 5 -13 -94 c-10 -79 -135 -603
-145 -614 -2 -2 -163 -10 -358 -19 -195 -9 -356 -17 -358 -19 -1 -2 -23 -110
-47 -240 -43 -229 -65 -303 -81 -278 -11 19 -8 110 9 286 9 88 30 417 46 730
17 314 35 587 41 608 5 20 24 53 41 73 l31 35 19 -29 c10 -16 23 -56 29 -88z
m3493 74 c54 -73 57 -164 10 -358 -40 -164 -92 -276 -335 -717 -232 -423 -278
-496 -333 -538 -30 -23 -126 -47 -126 -32 0 4 109 226 243 494 250 500 305
633 338 808 15 77 18 266 6 333 l-7 42 89 0 c90 0 90 0 115 -32z m-1238 -1225
c-14 -26 -25 -45 -26 -41 0 12 43 98 48 94 2 -2 -8 -26 -22 -53z m-65 -140
c-11 -21 -20 -35 -21 -31 0 12 33 78 38 74 2 -2 -6 -21 -17 -43z"/>
<path d="M18150 4635 c-134 -24 -275 -55 -313 -69 -118 -44 -221 -122 -309
-236 -24 -31 -28 -33 -34 -15 -43 127 -119 198 -258 244 -45 14 -100 16 -441
13 -370 -3 -396 -4 -503 -28 -137 -29 -142 -29 -142 -4 0 17 -7 20 -42 20 -24
0 -270 -5 -547 -10 -450 -9 -511 -12 -575 -29 -39 -11 -90 -25 -113 -31 -39
-10 -42 -13 -48 -53 -48 -320 -111 -476 -390 -972 -376 -668 -435 -817 -435
-1090 0 -106 8 -150 41 -255 l21 -66 97 -33 96 -33 455 -9 c250 -4 531 -8 624
-8 156 -1 168 0 161 17 -25 66 -56 196 -60 256 l-5 71 15 -75 c8 -41 23 -104
34 -140 l20 -66 138 -34 c135 -34 143 -35 376 -38 130 -2 237 0 237 5 0 4 -9
40 -20 78 -75 257 -64 538 32 877 l31 107 27 -14 c33 -17 60 -79 60 -138 0
-23 -7 -94 -15 -157 -20 -152 -20 -375 0 -476 19 -95 68 -202 98 -214 12 -5
88 -23 168 -40 144 -30 149 -30 402 -28 l256 3 -28 41 c-32 48 -59 129 -70
207 l-7 55 45 -47 c130 -133 231 -172 631 -245 319 -57 508 -64 696 -22 331
72 520 291 541 624 14 223 -50 397 -209 567 -40 43 -168 152 -288 246 -331
257 -408 350 -418 505 -5 80 12 183 35 211 12 16 14 1 10 -114 -4 -118 -3
-133 12 -133 9 0 205 14 436 30 231 16 424 30 429 30 13 0 -2 273 -20 349 -36
158 -133 290 -256 350 -160 78 -308 81 -678 16z m-2153 -513 c-18 -29 -470
-1165 -491 -1236 -50 -162 -67 -256 -73 -408 -4 -106 -9 -148 -18 -148 -7 0
-67 11 -135 25 -113 23 -145 25 -387 25 l-265 0 7 63 c18 158 64 311 152 505
l56 122 296 0 297 0 87 182 87 181 -285 -6 c-157 -3 -285 -5 -285 -3 0 2 53
108 119 237 65 129 135 277 155 330 l37 97 232 5 c128 4 268 13 312 21 100 17
107 18 102 8z m713 -135 c0 -43 -13 -99 -51 -215 -28 -86 -60 -174 -71 -195
-24 -48 -83 -114 -120 -133 -27 -14 -27 -14 -19 8 5 13 30 77 56 143 26 66 71
191 102 279 80 232 72 215 89 192 8 -12 14 -43 14 -79z m674 -494 c55 -103
128 -177 341 -343 222 -173 299 -250 346 -346 28 -56 34 -80 37 -155 3 -56 0
-107 -9 -136 -13 -48 -71 -123 -94 -123 -30 0 -47 81 -46 213 1 125 1 127 -21
127 -13 0 -99 7 -193 15 -119 10 -226 13 -357 8 l-188 -6 0 125 c0 209 -42
298 -167 355 l-54 25 90 44 c98 48 192 131 246 216 17 27 31 48 32 48 1 0 18
-30 37 -67z"/>
<path d="M7179 4578 c91 -166 134 -370 112 -536 -28 -217 -106 -397 -334 -766
-369 -599 -476 -808 -537 -1056 -6 -25 -13 -53 -16 -62 -5 -17 24 -18 523 -18
l528 1 69 27 c38 15 72 34 76 42 4 8 17 58 30 110 12 52 37 132 55 178 l33 82
-309 0 -309 0 41 83 c23 45 120 207 218 360 l176 278 252 -6 252 -6 31 43 c49
67 173 268 169 273 -14 13 -156 25 -301 25 -91 0 -173 3 -181 6 -12 4 -8 23
25 102 58 143 78 236 78 371 l0 113 339 -7 339 -7 -9 47 c-16 85 -30 129 -71
217 -39 84 -43 89 -102 122 l-61 34 -535 11 c-294 6 -554 11 -578 11 l-43 0
40 -72z"/>
<path d="M9140 4607 c0 -2 14 -35 31 -72 72 -160 92 -366 50 -527 -55 -213
-106 -302 -423 -740 -339 -468 -416 -591 -492 -778 -33 -82 -73 -228 -81 -301
l-7 -56 187 -6 187 -6 54 34 c51 33 54 37 54 77 1 57 32 197 63 278 60 159
137 289 316 534 l116 158 65 -6 c91 -10 114 -23 118 -68 4 -45 -17 -87 -118
-238 -156 -232 -232 -392 -265 -558 -19 -92 -14 -182 11 -207 13 -12 49 -15
202 -14 l187 0 23 30 c23 28 23 32 12 81 -25 101 8 265 82 412 16 32 86 149
155 260 153 245 183 304 183 369 0 41 -5 53 -29 76 l-30 28 80 32 c226 93 399
278 481 518 28 81 30 95 26 193 -7 148 -30 204 -122 296 -112 112 -236 164
-439 183 -103 10 -677 25 -677 18z m805 -466 c27 -15 30 -23 33 -75 6 -120
-82 -320 -189 -427 -84 -85 -143 -109 -264 -109 l-85 0 47 71 c108 167 179
353 190 492 l6 80 116 -7 c82 -5 125 -12 146 -25z"/>
<path d="M10590 4551 c0 -17 9 -65 21 -106 68 -250 28 -471 -139 -750 -20 -33
-149 -208 -287 -390 -363 -478 -435 -586 -482 -724 -32 -97 -30 -208 8 -286
70 -148 256 -244 475 -245 209 0 349 73 458 239 24 36 96 165 161 286 112 209
132 238 398 595 359 480 439 604 507 780 59 154 74 233 74 385 -1 77 -5 158
-10 180 l-10 40 -191 3 -191 2 -19 -31 c-19 -29 -19 -35 -6 -97 32 -145 16
-334 -42 -494 -62 -170 -113 -252 -395 -623 -268 -352 -351 -472 -441 -634
-94 -169 -170 -223 -286 -205 -110 16 -128 91 -56 235 29 58 126 194 309 434
308 405 406 548 473 689 86 180 114 293 112 460 -1 95 -26 255 -42 270 -2 2
-93 7 -201 11 l-198 7 0 -31z"/>
<path d="M11998 4517 l-37 -32 11 -90 c22 -169 -21 -385 -114 -570 -67 -131
-144 -247 -344 -510 -341 -449 -433 -595 -489 -780 -48 -157 -52 -338 -11
-437 l16 -38 175 0 175 0 -8 33 c-4 17 -7 93 -7 167 1 165 19 240 104 415 48
99 103 181 311 465 138 190 254 347 256 350 3 3 -25 -58 -61 -135 -106 -220
-185 -394 -211 -464 -82 -218 -95 -441 -34 -622 33 -98 73 -171 110 -199 35
-28 36 -28 242 -34 l206 -6 -15 47 c-20 66 -28 254 -14 335 37 212 104 339
423 795 143 206 296 433 339 505 155 258 238 522 239 756 l0 72 -175 0 c-174
0 -176 0 -234 -29 l-58 -30 -6 -138 c-12 -275 -98 -498 -304 -788 -121 -169
-119 -171 -29 28 36 80 93 253 111 337 37 171 31 374 -17 553 l-21 77 -246 0
-246 0 -37 -33z"/>
<path d="M13469 4508 l-76 -30 -7 -99 c-15 -219 -68 -389 -189 -614 -29 -55
-143 -230 -253 -390 -360 -523 -421 -631 -476 -840 -28 -107 -29 -262 -4 -367
l19 -77 58 -35 57 -34 184 -4 184 -3 -18 58 c-64 207 -31 453 97 707 37 74
203 338 234 373 4 4 -14 -57 -40 -135 -122 -369 -102 -641 66 -903 28 -44 41
-54 106 -81 74 -31 75 -31 295 -37 l221 -5 -23 73 c-64 201 -53 406 34 640 18
47 149 288 319 585 285 500 372 670 431 845 31 93 65 246 77 348 l6 57 -168 0
c-161 1 -172 -1 -274 -32 l-106 -32 -16 -116 c-18 -135 -51 -254 -111 -402
-36 -89 -130 -268 -141 -268 -2 0 8 34 21 76 68 212 98 498 72 679 l-13 90
-245 2 -245 2 -76 -31z"/>
<path d="M16387 1198 c-107 -29 -159 -178 -101 -290 9 -17 59 -72 111 -122 52
-50 102 -104 110 -120 18 -34 19 -111 3 -131 -29 -35 -60 -4 -60 58 0 30 -4
37 -31 46 -18 6 -59 11 -92 11 l-59 0 7 -57 c9 -70 35 -125 72 -151 82 -57
228 -68 292 -23 44 32 71 92 71 162 0 101 -35 164 -143 254 -105 88 -142 172
-99 226 29 35 52 19 52 -35 0 -52 8 -56 119 -56 l74 0 -6 51 c-8 62 -33 116
-67 141 -30 22 -130 48 -180 47 -19 -1 -52 -6 -73 -11z"/>
<path d="M4333 1194 c-10 -4 -13 -94 -13 -401 l0 -394 148 3 c145 3 150 4 197
33 65 40 87 80 93 169 6 95 -11 152 -57 196 l-36 35 27 26 c15 15 30 43 33 63
11 58 -4 161 -28 198 -39 57 -69 67 -218 73 -74 3 -140 2 -146 -1z m212 -138
c20 -14 34 -91 25 -141 -5 -27 -9 -30 -47 -33 l-42 -3 -3 95 -3 96 26 0 c14 0
34 -6 44 -14z m26 -325 c19 -15 24 -30 27 -84 2 -37 1 -78 -2 -92 -6 -23 -11
-25 -61 -25 l-55 0 0 110 0 110 34 0 c19 0 44 -8 57 -19z"/>
<path d="M4738 1190 c-15 -9 -6 -35 75 -233 l92 -222 0 -167 0 -168 72 0 c44
0 75 5 79 12 4 6 7 86 6 177 l-1 166 53 215 53 215 -60 3 c-33 2 -65 1 -72 -2
-7 -2 -22 -57 -35 -121 -14 -73 -26 -112 -31 -103 -4 8 -27 64 -50 126 l-41
112 -62 0 c-33 0 -69 -5 -78 -10z"/>
<path d="M8813 1181 c-89 -41 -94 -113 -23 -338 28 -87 62 -203 75 -257 28
-110 58 -160 111 -182 95 -40 216 7 245 93 12 36 8 74 -17 161 l-15 52 -54 0
c-30 0 -55 -3 -55 -6 0 -3 7 -33 16 -67 19 -73 13 -104 -22 -113 -42 -11 -72
10 -84 58 -6 24 -37 129 -70 233 -33 105 -60 199 -60 211 0 28 19 44 50 44 36
0 58 -27 79 -97 l17 -58 58 -3 c50 -3 58 -1 52 13 -3 9 -13 43 -22 77 -36 142
-93 198 -197 198 -23 0 -61 -9 -84 -19z"/>
<path d="M9233 1179 c-31 -15 -48 -33 -64 -65 -26 -55 -25 -66 46 -289 30 -93
66 -210 81 -260 33 -113 73 -159 149 -171 88 -13 171 21 199 81 26 54 19 97
-44 289 -33 99 -69 213 -80 252 -24 85 -69 150 -115 170 -50 20 -123 18 -172
-7z m145 -121 c16 -20 142 -412 149 -465 5 -38 3 -48 -12 -59 -26 -19 -59 -17
-78 4 -17 19 -143 396 -153 460 -4 28 -2 47 6 57 15 18 74 20 88 3z"/>
<path d="M12740 1168 c0 -78 37 -172 121 -315 61 -103 104 -221 130 -355 6
-35 16 -69 22 -76 6 -7 35 -12 79 -12 61 0 69 2 64 18 -2 9 -7 33 -11 52 -4
19 -22 88 -41 153 -35 117 -35 118 -24 218 13 115 37 201 79 277 28 49 28 53
11 62 -10 6 -43 10 -74 10 -52 0 -55 -2 -77 -36 -12 -20 -34 -75 -49 -121
l-26 -85 -18 53 c-10 30 -20 79 -23 109 -3 33 -12 60 -21 68 -9 7 -43 12 -79
12 l-63 0 0 -32z"/>
<path d="M13201 1150 c-22 -105 -14 -172 49 -410 32 -124 62 -244 66 -268 4
-26 14 -47 25 -52 10 -6 117 -10 248 -9 l231 0 0 75 0 75 53 -3 52 -3 20 -63
c12 -35 27 -67 35 -72 8 -6 45 -10 82 -10 l68 0 -24 62 c-13 35 -55 142 -94
238 -88 217 -103 271 -107 384 -4 107 -5 108 -129 104 l-80 -3 -24 -69 c-33
-96 -38 -215 -18 -412 16 -160 19 -243 9 -214 -11 32 -37 40 -123 40 l-87 0
-48 178 c-53 192 -69 336 -46 417 14 53 -2 65 -85 65 l-62 0 -11 -50z m633
-368 c20 -52 36 -96 36 -98 0 -2 -15 -4 -34 -4 -30 0 -34 4 -40 33 -11 54 -17
215 -7 187 5 -14 25 -67 45 -118z"/>
<path d="M14056 1192 c-2 -4 -10 -39 -17 -76 -16 -95 -6 -184 46 -404 25 -103
48 -209 51 -235 8 -57 22 -67 98 -67 47 0 56 3 56 18 0 10 -20 105 -45 212
-25 107 -45 200 -45 205 0 12 135 -264 174 -357 32 -74 37 -78 134 -78 60 0
62 1 57 23 -80 341 -110 583 -86 696 6 30 9 57 5 60 -3 3 -38 6 -77 6 l-72 0
-13 -70 c-8 -42 -11 -104 -9 -155 l5 -85 -28 85 c-20 57 -29 106 -30 148 0 58
-2 63 -26 72 -30 12 -171 13 -178 2z"/>
<path d="M14711 1125 c-6 -42 -11 -95 -11 -118 0 -36 89 -575 96 -586 8 -10
177 -21 237 -15 89 8 128 34 143 94 9 37 7 72 -12 195 -13 83 -26 197 -29 255
-7 122 -25 181 -62 206 -45 29 -124 44 -239 44 l-112 0 -11 -75z m243 -86 c3
-17 6 -55 6 -83 0 -28 12 -124 27 -214 30 -176 28 -194 -20 -200 -23 -3 -26 1
-36 50 -50 252 -68 395 -56 448 6 26 11 30 40 30 28 0 33 -4 39 -31z"/>
<path d="M15282 1183 c-6 -10 -20 -56 -32 -103 -21 -83 -38 -320 -39 -572 l-1
-86 31 -11 c18 -6 54 -11 80 -11 l49 0 0 80 0 80 50 0 49 0 16 -52 c8 -28 15
-57 15 -65 0 -22 57 -43 120 -43 33 0 60 2 60 5 0 3 -31 114 -69 247 -71 251
-101 394 -101 484 0 50 -1 52 -31 58 -17 3 -67 6 -110 6 -64 0 -80 -3 -87 -17z
m147 -485 c1 -13 -7 -18 -29 -18 l-30 0 0 88 c0 49 3 92 7 96 8 7 51 -131 52
-166z"/>
<path d="M15592 1106 c4 -71 23 -164 79 -390 85 -341 68 -316 210 -316 l78 0
5 33 c3 17 10 113 17 212 12 194 40 410 64 490 l15 50 -4 -99 c-5 -141 28
-654 43 -669 7 -7 48 -14 93 -16 l81 -3 -6 33 c-12 67 -29 566 -23 660 l7 97
-33 5 c-18 3 -101 6 -184 6 l-151 0 -17 -77 c-23 -111 -36 -208 -36 -281 0
-35 -3 -62 -6 -58 -14 14 -44 189 -50 294 l-7 111 -30 6 c-16 3 -57 6 -90 6
l-60 0 5 -94z"/>
<path d="M5387 1182 c-3 -4 3 -75 13 -157 41 -328 52 -460 45 -543 l-6 -83 73
3 73 3 8 55 c4 30 5 103 1 163 -5 103 -5 107 15 107 36 0 70 -22 81 -53 5 -16
10 -86 10 -154 l0 -124 73 3 72 3 -1 145 c0 130 -2 149 -22 188 -13 23 -34 48
-47 54 l-24 11 24 29 c29 35 33 98 11 189 -19 81 -45 120 -96 147 -39 19 -59
22 -172 22 -70 0 -129 -3 -131 -8z m236 -140 c18 -20 43 -142 34 -166 -4 -11
-19 -16 -46 -16 l-39 0 -12 73 c-6 39 -13 84 -16 100 -5 25 -3 27 29 27 20 0
41 -7 50 -18z"/>
<path d="M5837 1183 c-2 -4 13 -116 35 -248 32 -194 40 -269 41 -387 l2 -148
61 0 c40 0 66 5 73 14 25 30 14 232 -23 447 -20 112 -40 231 -44 264 l-7 60
-67 3 c-36 2 -68 -1 -71 -5z"/>
<path d="M6053 1174 c-3 -9 14 -124 38 -257 38 -210 44 -260 44 -379 l0 -138
167 0 c190 0 188 -1 188 84 l0 46 -99 0 -99 0 -7 63 c-3 34 -24 156 -45 272
-21 116 -42 236 -45 268 l-7 57 -64 0 c-50 0 -66 -4 -71 -16z"/>
<path d="M6434 1176 c-3 -7 19 -128 48 -267 47 -228 52 -267 53 -381 l0 -128
172 0 c195 0 174 -10 187 88 l6 42 -108 0 -109 0 -6 67 c-4 38 -9 85 -13 106
l-7 37 76 0 c42 0 79 5 82 10 4 6 1 35 -6 65 l-12 54 -85 3 -86 3 -18 80 c-9
44 -18 86 -18 93 0 9 25 12 94 12 52 0 97 4 100 8 3 5 2 34 -1 65 l-6 57 -169
0 c-134 0 -170 -3 -174 -14z"/>
<path d="M6806 1181 c-9 -14 30 -93 140 -286 92 -162 104 -188 114 -256 7 -42
11 -113 9 -157 l-4 -82 62 0 c55 0 62 2 69 23 12 35 8 207 -6 257 -14 53 -7
250 16 404 8 55 14 101 14 103 0 2 -27 3 -59 3 -44 0 -60 -4 -65 -15 -3 -9
-10 -66 -16 -127 -6 -62 -13 -114 -15 -116 -5 -5 -109 204 -117 236 -6 20 -13
22 -71 22 -36 0 -68 -4 -71 -9z"/>
<path d="M7453 1133 c3 -32 29 -146 57 -253 66 -249 70 -276 71 -387 l0 -93
59 0 c43 0 59 4 64 16 16 42 4 227 -20 307 -5 16 1 18 57 15 l63 -3 14 -50 c8
-28 15 -101 16 -167 l1 -118 62 0 62 0 7 56 c10 83 -2 155 -57 351 -57 205
-79 300 -79 349 l0 34 -66 0 -67 0 7 -64 c5 -52 23 -131 53 -238 5 -16 -2 -18
-54 -18 l-60 0 -27 98 c-14 54 -29 126 -32 160 l-7 62 -65 0 -65 0 6 -57z"/>
<path d="M8006 1175 c-12 -32 -6 -142 19 -334 29 -222 30 -282 10 -366 -8 -33
-14 -64 -15 -68 0 -4 26 -7 58 -5 l57 3 14 73 15 72 67 0 c75 0 71 4 85 -97
l7 -53 60 0 60 0 -6 68 c-9 88 -27 139 -127 356 -92 200 -107 238 -124 311
l-11 50 -81 3 c-68 2 -83 0 -88 -13z m182 -342 l71 -163 -50 0 c-56 0 -49 -16
-79 166 -19 115 -25 172 -16 163 2 -2 35 -77 74 -166z"/>
<path d="M8359 1185 c-16 -15 16 -180 66 -340 64 -209 88 -328 79 -397 l-7
-49 164 3 164 3 3 62 3 63 -100 0 c-112 0 -102 -7 -115 80 -4 20 -26 101 -51
180 -60 190 -85 294 -85 353 l0 47 -58 0 c-32 0 -61 -2 -63 -5z"/>
<path d="M9592 1098 c5 -78 14 -117 57 -243 64 -185 91 -293 91 -367 0 -84 3
-88 67 -88 l56 0 -5 78 c-4 58 -21 124 -68 265 -34 104 -60 191 -57 193 6 6
152 -303 173 -365 9 -28 21 -77 28 -108 l11 -58 51 -3 c46 -3 52 -1 58 20 14
52 4 181 -25 336 -17 90 -29 166 -27 168 3 2 30 -76 61 -174 41 -127 59 -201
65 -262 l7 -85 54 -3 c30 -2 58 1 63 6 19 19 -14 175 -72 347 -68 201 -82 264
-84 360 l-1 70 -84 3 c-47 2 -89 -2 -94 -7 -25 -25 -20 -164 12 -335 18 -92
30 -170 28 -172 -2 -3 -39 70 -82 162 -56 120 -81 188 -92 247 -9 45 -17 88
-19 95 -2 8 -29 12 -90 12 l-87 0 5 -92z"/>
<path d="M10174 1155 c-11 -59 12 -167 82 -378 43 -131 67 -220 70 -265 10
-123 -5 -112 147 -105 149 6 186 18 212 67 40 74 -10 232 -96 310 -43 39 -47
45 -33 57 13 11 15 26 11 74 -13 138 -40 204 -100 249 -25 18 -45 21 -157 24
l-129 4 -7 -37z m235 -112 c5 -10 14 -44 21 -76 14 -71 4 -90 -48 -85 -31 3
-37 8 -48 41 -8 21 -16 61 -20 88 l-7 49 46 0 c34 0 49 -5 56 -17z m91 -303
c23 -12 60 -108 60 -156 0 -28 -5 -36 -26 -44 -52 -20 -72 -13 -83 28 -6 20
-22 70 -35 110 l-25 72 45 0 c25 0 54 -4 64 -10z"/>
<path d="M10880 1158 c-26 -75 -23 -185 10 -371 18 -103 32 -220 33 -275 l2
-97 63 -3 62 -3 0 76 0 75 59 0 c33 0 63 -5 66 -11 4 -5 14 -38 24 -72 l16
-62 68 -3 c37 -2 67 -1 67 1 0 26 -49 143 -126 304 -109 226 -140 310 -150
406 l-7 67 -87 0 -88 0 -12 -32z m231 -455 c8 -22 6 -23 -36 -23 -51 0 -49 -2
-79 159 -27 144 -21 146 45 11 34 -69 65 -135 70 -147z"/>
<path d="M11234 1164 c-4 -14 -4 -65 -2 -112 5 -71 16 -117 60 -247 49 -141
71 -225 97 -355 7 -35 7 -35 64 -38 l57 -3 0 40 c0 36 -17 97 -116 409 -12 39
-21 72 -19 72 1 0 46 -76 99 -169 85 -150 126 -230 164 -324 11 -26 15 -27 80
-27 l69 0 -8 60 c-5 32 -34 136 -64 230 -76 236 -87 288 -83 395 l3 90 -62 3
-62 3 -7 -37 c-11 -58 2 -182 29 -274 30 -101 17 -88 -49 46 -27 55 -51 124
-62 175 l-17 84 -82 3 c-82 3 -82 3 -89 -24z"/>
<path d="M11704 1155 c-17 -93 1 -202 69 -410 36 -110 68 -227 72 -260 4 -33
13 -63 19 -67 21 -14 244 -9 280 6 81 34 84 86 17 296 -26 85 -56 198 -65 250
-23 122 -35 151 -82 186 -36 28 -42 29 -170 32 l-133 4 -7 -37z m224 -102 c6
-10 13 -38 17 -63 4 -25 32 -121 62 -215 29 -93 53 -183 51 -200 -3 -27 -7
-30 -44 -33 l-41 -3 -15 53 c-9 29 -36 118 -61 198 -25 80 -48 175 -52 213
l-7 67 40 0 c29 0 44 -5 50 -17z"/>
<path d="M12332 1173 c-4 -10 -7 -63 -7 -118 1 -93 5 -114 62 -303 34 -111 67
-230 74 -265 7 -34 17 -65 23 -69 20 -14 244 -9 280 6 78 33 83 86 25 277 -22
74 -51 193 -64 265 -35 204 -58 224 -260 224 -110 0 -127 -2 -133 -17z m222
-111 c3 -5 10 -40 16 -78 6 -38 34 -145 62 -238 56 -185 56 -199 -3 -204 -33
-3 -34 -2 -52 55 -76 250 -98 337 -104 401 l-6 72 41 0 c22 0 43 -4 46 -8z"/>
</g>
</svg>
