<?xml version="1.0" standalone="no"?>
<!DOCTYPE svg PUBLIC "-//W3C//DTD SVG 20010904//EN"
 "http://www.w3.org/TR/2001/REC-SVG-20010904/DTD/svg10.dtd">
<svg version="1.0" xmlns="http://www.w3.org/2000/svg"
 width="2100.000000pt" height="525.000000pt" viewBox="0 0 2100.000000 525.000000"
 preserveAspectRatio="xMidYMid meet">

<g transform="translate(0.000000,525.000000) scale(0.100000,-0.100000)"
fill="#000000" stroke="none">
<path d="M936 4123 c2 -54 6 -124 8 -155 l4 -58 -169 0 -169 0 0 -602 0 -603
160 3 159 4 -6 -152 -6 -152 589 7 c525 5 616 9 839 31 138 14 259 27 271 29
18 4 23 18 38 127 10 68 19 124 21 126 2 3 33 7 69 9 54 5 66 3 66 -9 0 -9
-11 -75 -25 -148 -14 -73 -25 -137 -25 -141 0 -5 264 -6 588 -3 552 5 599 7
787 31 110 14 200 26 200 27 1 0 14 55 29 121 16 66 33 126 39 133 5 6 25 12
44 12 28 0 33 -3 29 -17 -10 -34 -76 -288 -76 -294 0 -3 267 -4 593 -1 531 3
604 5 707 23 163 28 157 26 164 56 12 53 59 208 65 215 6 7 162 30 167 25 2
-2 -14 -59 -35 -128 -21 -68 -42 -139 -46 -157 l-7 -32 728 0 c710 0 730 1
803 21 42 12 81 25 87 30 6 5 14 27 18 49 5 33 45 170 63 217 4 11 -92 13
-537 13 l-542 0 6 22 c3 13 50 136 104 273 l99 250 210 3 210 2 23 77 c29 97
50 187 45 192 -3 2 -96 6 -207 9 l-203 5 0 128 0 129 561 2 561 3 -14 70 c-8
38 -27 99 -42 135 l-28 65 -74 26 -74 26 -762 5 -762 5 16 -30 c27 -53 64
-159 77 -225 l14 -64 -46 6 c-26 4 -72 9 -102 12 l-56 6 -11 48 c-6 26 -25 81
-42 122 l-31 74 -148 27 -147 27 -606 0 -606 0 33 -82 c34 -86 70 -215 61
-224 -9 -9 -109 9 -112 20 -12 46 -67 213 -73 223 -5 8 -80 23 -181 38 -170
25 -182 25 -812 25 -351 0 -639 -3 -639 -6 0 -3 9 -36 20 -72 11 -37 26 -100
34 -139 l14 -73 -93 0 -92 0 -7 56 c-4 32 -14 86 -23 121 -12 50 -20 64 -37
68 -11 2 -129 16 -261 30 -231 24 -266 25 -867 25 l-626 0 4 -97z m1188 -274
c3 -17 6 -76 6 -130 l0 -99 48 -1 c102 -1 443 -16 446 -20 7 -10 -15 -229 -40
-385 l-27 -172 -238 -7 c-132 -4 -239 -11 -239 -16 0 -13 -30 -221 -35 -246
l-5 -23 -278 0 -277 0 2 117 c1 65 5 319 9 566 l6 447 308 0 308 0 6 -31z
m2100 15 c12 -32 6 -288 -10 -396 -14 -98 -163 -671 -178 -686 -3 -3 -180 -7
-392 -10 -375 -5 -386 -4 -381 14 3 11 26 123 51 249 64 327 80 473 73 678
l-5 167 418 0 c372 0 419 -2 424 -16z m1710 -6 c18 -67 1 -271 -34 -408 -16
-61 -151 -452 -217 -627 l-16 -43 -279 0 -279 0 7 23 c3 12 37 117 75 232 73
227 112 370 130 480 13 80 16 284 5 333 l-8 32 305 0 305 0 6 -22z"/>
<path d="M19410 4199 c-192 -6 -568 -40 -588 -53 -5 -3 -13 -59 -17 -123 -4
-65 -11 -126 -16 -135 -7 -13 -22 -18 -54 -18 -25 0 -45 5 -45 10 0 7 -50 8
-151 4 l-151 -7 6 29 c3 16 10 76 16 134 6 58 13 115 16 128 l4 22 -664 0
c-423 0 -693 -4 -742 -11 -59 -8 -79 -8 -82 1 -5 15 -1453 4 -1557 -12 -51 -8
-70 -8 -73 1 -7 21 -302 13 -432 -13 l-115 -23 -7 -101 c-10 -135 -40 -280
-89 -424 -58 -170 -66 -188 -89 -188 -17 0 -19 3 -11 18 12 22 91 251 91 263
0 5 -63 9 -141 9 l-141 0 7 28 c20 77 45 211 45 245 l0 37 -145 0 -145 0 0 80
0 80 -152 0 c-103 0 -171 -5 -208 -15 -69 -19 -80 -19 -80 0 0 13 -24 15 -152
15 -131 0 -164 -3 -228 -23 l-75 -23 3 -85 c6 -154 -26 -323 -100 -520 l-40
-109 -65 0 c-58 0 -64 2 -58 18 32 79 84 223 90 250 l7 32 -141 0 c-78 0 -141
1 -141 3 0 1 6 34 14 72 8 39 18 104 21 146 l7 76 -143 6 c-154 7 -159 9 -159
63 0 17 -3 46 -6 63 l-6 31 -154 0 c-138 0 -158 -2 -199 -22 -33 -16 -44 -26
-40 -39 16 -49 23 -186 15 -268 -18 -175 -50 -267 -228 -663 -157 -348 -190
-449 -207 -635 l-7 -71 43 -29 c41 -27 48 -28 186 -31 l143 -4 0 50 c0 174 37
295 213 697 80 182 160 376 178 432 l34 102 79 1 79 0 -6 -30 c-4 -16 -25 -78
-47 -137 -22 -59 -40 -108 -40 -110 0 -2 59 -3 130 -3 72 0 130 -3 130 -6 0
-3 -25 -62 -56 -131 -31 -68 -53 -127 -49 -131 3 -4 62 -9 129 -12 l123 -5
-50 -125 c-68 -171 -97 -291 -104 -426 l-6 -111 59 -24 c52 -21 79 -24 222
-27 158 -3 162 -3 162 17 0 12 1 21 3 21 1 0 38 -11 82 -25 69 -21 99 -25 220
-25 l140 0 1 123 c2 177 23 254 194 682 81 204 155 394 164 423 17 49 19 52
52 52 41 0 42 2 -21 -163 l-42 -112 133 -3 c74 -1 134 -5 134 -7 0 -3 -24 -63
-53 -134 l-54 -128 75 -7 c41 -3 101 -6 134 -6 32 0 58 -4 58 -8 0 -4 -13 -46
-29 -92 -66 -189 -97 -371 -86 -497 l7 -72 91 -22 c118 -29 447 -41 447 -16 0
13 8 13 63 -1 52 -12 193 -15 846 -19 594 -4 786 -2 791 7 6 9 25 9 78 1 39
-6 145 -11 237 -11 l165 0 -7 28 c-12 44 -8 341 6 422 7 41 31 153 54 248 l41
172 96 0 96 0 -21 -102 c-12 -57 -24 -117 -28 -134 l-6 -31 150 -8 c148 -7
151 -7 145 -28 -3 -12 -9 -70 -12 -128 l-7 -107 29 -5 c16 -3 72 -9 124 -12
162 -10 146 3 155 -135 4 -66 10 -122 15 -125 4 -3 102 -16 216 -30 209 -25
564 -36 564 -17 0 4 26 5 58 1 31 -4 330 -8 665 -8 l607 -1 0 150 0 150 170 0
170 0 0 253 c0 138 3 276 6 305 l7 52 -171 0 c-157 0 -170 1 -167 18 2 9 6 75
9 146 l6 129 -395 -7 c-378 -7 -395 -7 -395 11 0 10 7 72 15 138 8 65 15 120
15 121 0 0 141 4 313 7 171 4 409 14 527 22 118 8 223 15 233 15 15 0 17 14
17 150 l0 150 -387 -2 c-214 -1 -480 -5 -593 -9z m-2750 -367 c0 -11 -30 -124
-66 -253 -156 -557 -194 -715 -194 -809 0 -54 -7 -58 -85 -49 -38 4 -267 8
-508 8 l-437 1 4 23 c31 138 63 256 104 372 l50 140 223 3 224 2 48 138 c26
75 47 140 47 145 0 4 -97 7 -215 7 -118 0 -215 2 -215 5 0 3 16 60 35 126 19
67 35 127 35 135 0 12 71 14 443 17 243 1 457 3 475 5 25 2 32 -2 32 -16z
m1270 11 c0 -5 -11 -66 -25 -138 -14 -71 -25 -130 -25 -132 0 -2 -138 -3 -306
-3 l-306 0 6 23 c3 12 18 75 33 139 l28 118 298 0 c163 0 297 -3 297 -7z m690
-273 l137 0 -18 -132 c-10 -73 -18 -136 -19 -140 0 -5 173 -8 385 -8 l385 0
-5 -192 c-3 -106 -8 -230 -11 -275 l-6 -83 -36 -1 c-21 -1 -270 -4 -556 -8
l-518 -6 6 75 c4 41 9 101 13 133 l6 57 -79 0 c-44 0 -115 3 -159 6 l-81 7 25
138 25 139 77 0 c65 0 79 3 83 18 5 15 56 260 56 268 0 5 94 11 124 8 16 -2
90 -4 166 -4z"/>
<path d="M8729 4097 c35 -101 36 -104 36 -262 0 -209 -7 -233 -190 -665 -81
-190 -160 -381 -177 -425 -27 -74 -78 -264 -78 -292 0 -10 34 -13 138 -13 126
0 142 2 198 27 l61 26 13 70 c20 115 51 200 175 480 l118 267 238 0 c132 0
239 -2 239 -5 0 -2 -27 -64 -61 -136 -33 -72 -57 -134 -54 -137 4 -4 65 -9
136 -11 71 -1 129 -4 129 -6 0 -1 -22 -54 -49 -116 -73 -171 -74 -155 15 -163
42 -3 105 -6 140 -6 l62 0 -14 -52 c-15 -54 -44 -203 -44 -225 0 -10 36 -13
146 -13 l145 0 15 35 c7 19 14 49 14 67 0 31 31 172 45 211 7 16 -3 17 -128
17 l-136 0 13 38 c8 20 32 79 55 131 23 52 41 96 41 98 0 2 -58 3 -130 3 -71
0 -130 3 -130 6 0 3 28 64 62 135 l61 129 68 0 67 0 40 103 c22 56 44 116 49
132 l10 30 135 -4 135 -3 18 68 c9 38 20 108 22 157 l6 87 -135 0 -134 0 -12
73 c-12 81 -46 194 -65 218 -11 14 -87 16 -678 22 l-666 7 36 -103z m1043
-244 l316 -6 -5 -41 c-8 -72 -34 -201 -43 -210 -4 -4 -212 -5 -463 -1 l-455 8
9 31 c5 17 12 75 16 129 l6 97 152 0 c83 0 294 -3 467 -7z"/>
<path d="M10756 4166 c-3 -14 4 -64 15 -113 27 -112 23 -295 -10 -415 -12 -43
-90 -234 -175 -425 -84 -191 -161 -373 -171 -403 -10 -30 -20 -61 -23 -67 -3
-10 27 -13 130 -13 l134 0 -18 -87 c-10 -49 -17 -115 -16 -148 l3 -60 361 -3
360 -2 12 100 c7 55 17 121 23 145 l11 44 145 3 145 3 18 55 c9 30 74 183 144
340 165 368 196 447 237 600 26 98 36 304 19 393 -12 64 -12 65 -48 71 -21 3
-85 6 -145 6 -100 0 -110 -2 -148 -27 -31 -21 -39 -31 -35 -47 3 -12 11 -64
17 -116 9 -79 9 -113 -4 -200 -22 -150 -54 -242 -184 -530 -96 -211 -173 -397
-206 -492 -6 -17 -31 -18 -332 -18 -179 0 -325 2 -325 5 0 3 71 166 159 362
87 197 169 387 181 423 77 227 89 427 38 603 l-11 37 -147 0 -148 0 -6 -24z"/>
<path d="M3737 1633 c-4 -3 -7 -156 -7 -340 l0 -333 230 0 c257 0 250 -2 250
74 l0 36 50 0 c60 0 62 4 58 140 l-3 95 -57 3 -58 3 0 55 0 55 -122 -3 -123
-3 -3 -52 -3 -53 -45 0 -44 0 0 165 0 165 -58 0 c-32 0 -62 -3 -65 -7z m451
-433 l2 -100 -165 0 -165 0 0 40 0 40 48 0 c59 0 72 12 72 67 l0 42 103 4 c56
1 102 4 102 5 0 1 1 -43 3 -98z"/>
<path d="M5108 1628 c-3 -7 8 -121 23 -253 16 -132 28 -279 29 -327 l0 -88 54
0 c30 0 58 4 61 10 8 13 7 187 -1 262 l-7 58 106 0 105 0 7 -55 6 -55 60 0 59
0 0 -55 0 -55 61 0 61 0 -7 -55 -6 -55 55 0 c30 0 57 3 59 8 3 4 8 33 11 65
l7 57 -60 0 -61 0 0 55 0 55 -60 0 c-56 0 -60 2 -60 23 0 12 -3 32 -6 45 -5
19 -2 22 21 22 28 0 28 0 21 55 l-6 55 50 0 c48 0 50 1 50 28 0 15 -3 44 -6
65 l-7 37 -52 0 c-59 0 -65 6 -65 71 l0 39 -249 0 c-190 0 -250 -3 -253 -12z
m506 -149 c12 -62 22 -59 -178 -59 l-183 0 -7 31 c-12 62 -22 59 178 59 l184
0 6 -31z"/>
<path d="M5820 1598 c0 -81 6 -88 66 -88 l54 0 0 49 c0 76 -4 81 -66 81 l-54
0 0 -42z"/>
<path d="M5984 1627 c-3 -8 13 -122 36 -255 25 -151 40 -273 40 -326 l0 -86
55 0 c50 0 55 2 61 26 12 46 -3 195 -40 392 -20 106 -36 208 -36 227 l0 35
-55 0 c-37 0 -57 -4 -61 -13z"/>
<path d="M7403 1578 c3 -35 27 -146 52 -248 35 -141 46 -207 48 -275 l2 -90
58 -3 57 -3 0 63 c0 35 -7 94 -15 133 -8 38 -15 71 -15 72 0 2 74 3 164 3
l163 0 12 -57 c6 -31 11 -84 11 -119 0 -90 3 -94 67 -94 l56 0 -5 83 c-4 54
-21 140 -52 254 -27 99 -50 208 -54 255 l-7 83 -59 3 -58 3 7 -66 c3 -36 15
-99 24 -140 l18 -75 -162 0 -162 0 -16 68 c-9 37 -19 100 -23 140 l-7 72 -55
0 -55 0 6 -62z"/>
<path d="M8537 1620 c-9 -35 10 -142 51 -285 49 -172 62 -232 62 -295 0 -75 4
-80 67 -80 l56 0 -5 83 c-4 57 -19 130 -52 242 -31 103 -49 187 -52 235 -8
124 -6 120 -68 120 -45 0 -54 -3 -59 -20z"/>
<path d="M10534 1614 c-14 -56 5 -171 55 -334 28 -91 54 -192 58 -225 3 -33
10 -66 16 -72 7 -10 66 -13 233 -13 174 0 223 3 220 13 -3 6 -7 31 -10 54 l-6
42 54 3 55 3 -34 103 c-18 57 -36 107 -40 110 -3 4 -29 9 -57 12 -50 5 -51 6
-64 49 -7 24 -19 48 -26 52 -7 5 -61 9 -121 9 l-107 0 6 -27 c4 -16 11 -38 15
-51 5 -13 9 -25 9 -28 0 -2 -20 -4 -44 -4 l-44 0 -18 73 c-11 44 -18 105 -17
157 0 53 -4 88 -11 92 -6 4 -35 8 -63 8 -48 0 -53 -2 -59 -26z m501 -394 c12
-36 25 -77 29 -92 l6 -28 -149 0 c-141 0 -150 1 -155 20 -3 11 -9 29 -12 40
-5 18 -1 20 45 20 28 0 51 4 51 9 0 5 -7 28 -15 51 -8 23 -15 44 -15 47 0 2
43 2 97 1 l96 -3 22 -65z"/>
<path d="M12814 1629 c-4 -7 -9 -43 -12 -80 l-5 -69 -108 0 c-121 0 -117 3
-100 -72 l9 -38 -55 0 c-52 0 -54 -1 -47 -22 40 -125 74 -244 84 -293 6 -33
19 -66 28 -73 11 -9 75 -12 234 -12 l218 0 0 23 c0 12 -23 101 -51 197 -55
190 -71 311 -50 385 9 34 9 42 -6 53 -21 15 -129 16 -139 1z m10 -296 c2 -10
18 -63 35 -119 17 -56 31 -104 31 -108 0 -3 -40 -6 -88 -6 l-89 0 -32 108
c-18 59 -35 115 -37 125 -5 15 4 17 85 17 77 0 90 -3 95 -17z"/>
<path d="M13240 1589 c-19 -80 -6 -185 45 -364 25 -88 48 -176 51 -196 4 -26
13 -40 31 -48 15 -7 103 -11 240 -11 l216 0 -7 39 c-3 22 -9 46 -12 55 -5 13
3 16 50 16 31 0 56 1 56 3 0 1 -9 31 -20 65 -23 74 -25 93 -7 68 9 -12 31 -20
64 -23 51 -5 51 -6 62 -47 14 -55 38 -66 146 -66 84 0 85 0 91 -27 3 -16 8
-36 11 -45 4 -17 -8 -18 -156 -18 l-161 0 0 -53 c0 -74 10 -77 217 -77 l165 0
-4 55 -5 55 53 0 c30 0 54 5 56 11 3 9 9 9 25 0 30 -16 133 -15 133 2 0 6 -7
37 -15 67 -19 69 -19 75 1 56 15 -16 36 -23 84 -28 20 -2 26 -10 33 -44 5 -30
15 -44 33 -53 35 -16 418 -16 408 1 -5 8 -2 9 12 3 24 -10 154 -20 154 -11 0
4 -15 75 -34 159 -19 83 -36 167 -40 185 l-5 32 108 0 108 0 32 -147 c17 -82
34 -162 37 -180 5 -24 14 -34 37 -42 34 -13 137 -15 137 -3 0 22 -73 368 -80
375 -4 5 -29 11 -56 15 l-49 7 -3 43 c-3 35 -8 45 -28 52 -14 6 -115 10 -225
10 l-201 0 7 -66 c7 -65 7 -66 -13 -55 -11 6 -37 11 -56 11 -36 0 -36 0 -36
44 0 40 -3 45 -31 55 -19 7 -110 11 -224 11 l-192 0 7 43 c4 23 11 56 15 73 6
27 4 32 -17 37 -12 4 -49 7 -81 7 -53 0 -58 -2 -68 -27 -6 -15 -13 -56 -16
-91 -5 -53 -8 -62 -22 -56 -9 5 -44 10 -78 12 l-63 4 0 -44 c0 -23 9 -80 20
-126 11 -46 20 -87 20 -93 0 -5 -38 -9 -83 -9 l-84 0 -17 73 c-10 39 -20 95
-23 123 -7 62 -25 74 -108 74 -51 0 -54 -1 -58 -27 -2 -18 -5 -11 -6 18 -1 50
-12 59 -73 59 -31 0 -34 12 -17 57 19 49 1 53 -252 53 l-227 0 -12 -51z m425
-136 c5 -46 45 -210 81 -335 5 -17 -6 -18 -135 -18 l-140 0 -21 73 c-12 39
-28 93 -36 119 -17 51 -34 186 -26 206 3 9 40 12 137 12 l134 0 6 -57z m172
-85 c-3 -7 -5 -2 -5 12 0 14 2 19 5 13 2 -7 2 -19 0 -25z m490 10 c-3 -8 -6
-5 -6 6 -1 11 2 17 5 13 3 -3 4 -12 1 -19z m376 -26 c146 -3 177 -6 177 -18 0
-11 -24 -14 -134 -14 l-134 0 14 -52 c7 -29 14 -54 14 -55 0 -2 -26 -3 -58 -3
l-59 0 -12 58 c-7 31 -15 68 -18 81 -5 21 -3 23 13 15 10 -5 99 -10 197 -12z
m-834 -107 c-2 -17 -27 69 -27 90 0 11 6 -2 14 -30 7 -27 13 -54 13 -60z m468
83 c-3 -8 -6 -5 -6 6 -1 11 2 17 5 13 3 -3 4 -12 1 -19z m40 -163 c-4 -11 -37
118 -36 137 0 7 9 -18 20 -57 10 -38 17 -74 16 -80z m550 -20 l10 -45 -108 0
c-59 0 -110 3 -113 8 -2 4 -7 24 -11 45 l-7 37 109 0 110 0 10 -45z m-380 -7
c-3 -8 -6 -5 -6 6 -1 11 2 17 5 13 3 -3 4 -12 1 -19z m-160 -10 c-3 -8 -6 -5
-6 6 -1 11 2 17 5 13 3 -3 4 -12 1 -19z m10 -40 c-3 -8 -6 -5 -6 6 -1 11 2 17
5 13 3 -3 4 -12 1 -19z m10 -40 c-3 -8 -6 -5 -6 6 -1 11 2 17 5 13 3 -3 4 -12
1 -19z"/>
<path d="M15886 1623 c-3 -10 -10 -50 -16 -90 -11 -80 -5 -137 38 -381 25
-140 30 -155 52 -168 35 -19 480 -20 480 -1 -1 6 -5 31 -9 55 l-8 42 53 0 c30
0 54 4 54 10 0 6 9 6 26 0 14 -6 36 -10 49 -10 25 0 35 -17 35 -60 0 -43 35
-50 261 -50 153 0 199 3 199 13 -1 6 -6 58 -13 115 -13 102 -13 103 7 98 12
-3 33 -6 48 -6 24 0 27 -5 33 -44 6 -38 12 -46 38 -55 16 -6 40 -11 52 -11 25
0 35 -17 35 -60 0 -36 36 -50 127 -50 l63 0 -6 55 -7 55 58 0 58 0 -7 56 -6
57 37 -7 c21 -3 44 -6 51 -6 8 0 12 -21 13 -67 2 -106 9 -124 49 -139 43 -15
147 -18 152 -3 2 7 12 7 31 0 16 -6 89 -11 163 -11 l134 0 0 55 0 55 55 0 56
0 -3 57 -3 58 -52 14 c-51 13 -52 15 -55 54 -3 38 -5 41 -48 53 -25 8 -64 14
-87 14 l-43 0 0 40 0 40 145 0 146 0 -3 57 c-4 72 -1 71 -210 72 l-158 1 0
-50 0 -50 -45 0 c-33 0 -45 4 -45 15 0 19 -60 35 -132 35 l-58 0 0 -59 0 -59
-85 6 -85 5 0 -82 0 -81 -54 0 -55 0 6 -55 c5 -51 4 -55 -16 -55 -18 0 -21 6
-21 45 l0 44 -59 12 -59 13 -6 67 c-7 67 -8 68 -42 79 -20 7 -68 11 -107 10
-141 -5 -137 -6 -137 45 0 42 -1 44 -37 54 -21 6 -125 11 -232 11 -169 0 -192
2 -187 15 7 18 -29 35 -76 35 l-30 0 7 49 c6 45 5 49 -17 55 -13 3 -127 6
-255 6 -212 0 -232 -1 -237 -17z m424 -175 c0 -35 9 -121 20 -192 11 -71 20
-135 20 -142 0 -11 -27 -14 -129 -14 -115 0 -130 2 -135 18 -26 88 -55 344
-43 376 5 14 27 16 137 16 l130 0 0 -62z m407 -98 c138 0 163 -2 163 -15 0
-13 -22 -15 -141 -15 l-141 0 7 -55 6 -55 -50 0 c-46 0 -51 2 -52 23 0 12 -4
47 -8 78 l-7 56 31 -8 c16 -5 103 -9 192 -9z m1206 -56 c22 -5 27 -12 27 -38
0 -17 4 -36 8 -41 10 -16 83 -35 131 -35 l41 0 0 -40 0 -40 -130 0 -130 0 0
53 c0 28 -3 76 -7 106 -6 49 -5 53 13 48 10 -3 31 -9 47 -13z m-1029 -120 c3
-9 6 -29 6 -45 l0 -29 -100 0 c-107 0 -104 -2 -114 58 l-5 32 103 0 c85 0 105
-3 110 -16z"/>
<path d="M17677 1625 c-4 -9 -7 -34 -7 -55 0 -36 2 -38 44 -49 25 -6 67 -11
94 -11 l49 0 7 51 c4 32 3 56 -3 62 -6 6 -48 13 -94 15 -72 4 -85 2 -90 -13z"/>
<path d="M4351 1467 c-7 -10 -8 -51 -1 -143 5 -71 10 -132 10 -136 0 -5 25 -8
55 -8 l55 0 0 -39 c0 -71 0 -71 121 -71 l109 0 0 -40 0 -40 -159 0 c-119 0
-161 -3 -169 -13 -6 -7 -14 -39 -18 -70 l-7 -57 172 0 171 0 10 26 c6 14 10
39 10 55 0 28 1 29 54 29 40 0 55 4 60 16 14 36 3 285 -20 462 l-5 43 -57 -3
-57 -3 0 -65 c0 -36 3 -98 7 -137 l7 -73 -104 0 -103 0 -6 78 c-4 42 -9 105
-12 140 l-6 62 -53 0 c-31 0 -57 -5 -64 -13z"/>
<path d="M11402 1428 c5 -29 17 -59 26 -65 11 -9 67 -13 194 -13 152 0 178 -2
178 -15 0 -12 -17 -15 -92 -15 -51 0 -109 -3 -130 -6 l-36 -6 14 -40 c8 -22
14 -44 14 -49 0 -5 -23 -9 -51 -9 -51 0 -51 0 -44 -27 3 -16 14 -44 23 -63 15
-31 22 -35 62 -38 50 -4 60 -13 60 -59 0 -22 6 -36 19 -43 12 -6 98 -10 209
-10 l189 0 -4 28 c-2 15 -25 100 -51 189 -51 176 -56 183 -126 183 -35 0 -46
15 -46 66 0 37 -39 44 -234 44 l-183 0 9 -52z m457 -275 c6 -21 11 -41 11 -45
0 -5 -54 -8 -119 -8 -117 0 -119 0 -125 24 -3 13 -9 31 -12 39 -7 19 18 23
143 26 l92 1 10 -37z"/>
<path d="M11936 1443 c4 -21 29 -110 55 -198 27 -88 52 -182 55 -208 8 -57 22
-67 99 -67 l57 0 -7 33 c-4 17 -27 100 -51 184 -24 83 -44 154 -44 157 0 3 53
6 118 6 l117 0 42 -143 c23 -78 45 -159 49 -180 8 -46 26 -57 99 -57 65 0 66
-25 -3 217 -50 176 -55 183 -127 183 -32 0 -34 2 -40 44 -5 33 -13 46 -31 55
-16 7 -95 11 -210 11 l-185 0 7 -37z"/>
<path d="M5840 1452 c0 -10 11 -81 25 -158 15 -85 25 -177 25 -237 l0 -98 58
3 57 3 3 95 c1 69 -5 137 -25 250 l-28 155 -58 3 c-50 3 -57 1 -57 -16z"/>
<path d="M6285 1415 l6 -55 -51 0 c-51 0 -52 0 -48 -27 3 -16 14 -81 24 -145
l19 -118 52 0 53 0 0 -55 0 -55 164 0 c187 0 176 -6 176 95 0 91 -3 95 -66 95
-53 0 -54 0 -54 -30 l0 -30 -104 0 c-113 0 -115 1 -116 68 0 21 3 22 105 22
106 0 110 2 106 38 -1 8 14 12 49 12 60 0 60 0 28 143 l-21 97 -165 0 -164 0
7 -55z m235 -90 c0 -12 -18 -15 -105 -15 -87 0 -105 3 -105 15 0 12 18 15 105
15 87 0 105 -3 105 -15z"/>
<path d="M6660 1456 c0 -13 46 -224 56 -258 4 -14 17 -18 59 -18 58 0 65 -8
65 -77 l0 -33 116 0 117 0 -7 -31 c-3 -17 -6 -35 -6 -40 0 -5 -73 -9 -163 -9
l-164 0 -11 -47 c-6 -27 -14 -58 -18 -70 l-6 -23 170 0 171 0 12 55 12 54 56
3 56 3 -1 80 c-1 55 -13 136 -40 253 l-39 172 -52 0 c-64 0 -64 -1 -28 -140
36 -140 43 -130 -79 -130 l-104 0 -27 118 c-15 64 -29 125 -32 135 -3 13 -15
17 -59 17 -39 0 -54 -4 -54 -14z"/>
<path d="M8028 1408 l17 -63 189 -5 c139 -4 190 -8 194 -17 3 -10 -28 -13
-131 -13 l-135 0 14 -47 c8 -25 14 -50 14 -55 0 -4 -23 -8 -51 -8 l-51 0 6
-47 c12 -84 11 -83 72 -83 l54 0 0 -55 0 -55 195 0 195 0 0 53 c0 53 -18 137
-60 277 l-21 70 -53 0 -53 0 -14 53 -14 52 -192 3 -192 2 17 -62z m446 -250
c15 -59 17 -58 -124 -58 l-130 0 -6 28 c-3 15 -7 33 -10 40 -2 9 28 12 130 12
130 0 134 -1 140 -22z"/>
<path d="M8820 1462 c0 -5 6 -30 14 -55 l14 -47 -55 0 c-47 0 -54 -2 -49 -16
7 -19 49 -165 66 -231 l11 -43 49 0 50 0 0 -36 c0 -72 5 -74 155 -74 l135 0 0
55 0 55 51 0 52 0 -7 39 c-13 84 -19 91 -82 91 l-56 0 6 -36 c4 -19 10 -42 13
-50 4 -12 -16 -14 -126 -14 -72 0 -131 2 -131 4 0 4 -58 203 -65 224 -4 10 23
12 126 10 l131 -3 17 -45 16 -45 58 -3 c31 -2 57 -1 57 1 0 11 -34 104 -43
115 -5 6 -31 12 -56 12 l-47 0 -15 48 -14 47 -137 3 c-76 1 -138 -1 -138 -6z"/>
<path d="M9364 1435 c4 -20 10 -43 13 -51 4 -11 -6 -14 -50 -14 l-56 0 23 -67
c13 -38 31 -99 41 -138 10 -38 23 -76 28 -82 5 -7 29 -13 53 -13 42 0 43 -1
49 -37 13 -73 14 -76 47 -69 17 3 66 6 109 6 l79 0 0 50 0 50 50 0 c35 0 50 4
50 14 0 27 -73 252 -87 268 -9 10 -34 18 -61 20 -46 3 -46 3 -57 48 l-11 45
-113 3 -113 3 6 -36z m274 -202 c18 -60 32 -114 32 -120 0 -10 -26 -13 -98
-13 l-99 0 -21 73 c-12 39 -28 93 -36 120 l-15 47 102 0 103 0 32 -107z"/>
<path d="M9730 1466 c0 -2 23 -77 50 -167 29 -94 53 -194 57 -234 3 -38 10
-76 16 -82 5 -8 32 -13 63 -13 l54 0 0 49 c0 29 -16 103 -40 180 -22 71 -40
133 -40 136 0 3 44 5 98 5 l99 0 32 -103 c18 -57 38 -139 45 -183 l12 -79 63
-3 64 -3 -6 55 c-4 43 -43 187 -82 304 -3 9 20 12 95 12 l98 0 32 -102 c18
-57 37 -132 42 -168 14 -93 16 -95 87 -98 l62 -3 -7 48 c-3 26 -22 100 -42
163 -19 63 -37 125 -39 137 -8 34 -34 51 -83 55 -43 3 -44 4 -55 48 l-11 45
-118 3 -118 3 6 -26 c20 -83 23 -75 -27 -75 -45 0 -46 1 -53 38 -11 62 -10 62
-190 62 -90 0 -164 -2 -164 -4z"/>
</g>
</svg>
