<?xml version="1.0" standalone="no"?>
<!DOCTYPE svg PUBLIC "-//W3C//DTD SVG 20010904//EN"
 "http://www.w3.org/TR/2001/REC-SVG-20010904/DTD/svg10.dtd">
<svg version="1.0" xmlns="http://www.w3.org/2000/svg"
 width="1773.000000pt" height="354.000000pt" viewBox="0 0 1773.000000 354.000000"
 preserveAspectRatio="xMidYMid meet">

<g transform="translate(0.000000,354.000000) scale(0.100000,-0.100000)"
fill="#000000" stroke="none">
<path d="M904 3170 c-330 -27 -556 -205 -618 -485 -12 -56 -17 -197 -25 -685
-16 -934 -16 -1074 4 -1156 36 -147 115 -262 223 -328 160 -97 328 -106 717
-38 271 47 366 75 456 133 73 47 171 138 200 186 22 35 39 43 39 18 0 -8 9
-39 21 -69 57 -153 226 -246 451 -246 78 0 444 68 563 105 116 36 197 87 306
195 108 107 179 207 256 360 29 58 52 102 53 99 0 -4 -32 -78 -70 -165 -65
-147 -180 -471 -180 -508 0 -19 15 -19 445 -6 l280 8 185 46 c216 55 293 89
400 180 110 92 167 169 367 492 425 685 518 874 552 1116 21 152 -29 288 -146
399 -106 100 -257 169 -532 245 -156 43 -283 53 -702 56 l-317 3 46 -90 c153
-306 162 -594 30 -980 -32 -95 -228 -528 -235 -521 -3 2 4 21 15 43 47 90 174
419 202 519 79 287 80 472 3 618 -15 28 -63 87 -108 131 -62 62 -100 91 -170
127 -114 58 -170 76 -440 140 l-220 52 -185 0 c-176 1 -189 -1 -263 -27 -95
-33 -140 -61 -194 -120 -52 -56 -87 -125 -109 -211 l-17 -67 -32 48 c-75 110
-214 210 -360 258 -140 45 -742 147 -795 133 -3 0 -46 -4 -96 -8z m2254 -470
c38 -56 45 -104 39 -260 -11 -258 -57 -424 -266 -960 -163 -415 -224 -529
-247 -458 -16 51 -1 121 72 339 193 577 254 847 254 1139 0 134 18 187 72 220
40 24 47 23 76 -20z m-1777 -106 c7 -35 9 -114 6 -196 -3 -76 -2 -138 1 -138
4 -1 93 -7 197 -14 111 -8 271 -11 386 -8 l196 5 -13 -94 c-10 -79 -135 -603
-145 -614 -2 -2 -163 -10 -358 -19 -195 -9 -356 -17 -358 -19 -1 -2 -23 -110
-47 -240 -43 -229 -65 -303 -81 -278 -11 19 -8 110 9 286 9 88 30 416 46 730
17 314 35 587 41 608 5 20 24 53 41 73 l31 35 19 -29 c10 -16 23 -56 29 -88z
m3493 74 c54 -73 57 -164 10 -358 -40 -164 -92 -276 -335 -717 -232 -423 -278
-496 -333 -538 -30 -23 -126 -47 -126 -32 0 4 109 226 243 494 250 500 305
633 338 808 15 77 18 266 6 333 l-7 42 89 0 c90 0 90 0 115 -32z m-1238 -1225
c-14 -26 -25 -45 -26 -41 0 12 43 98 48 94 2 -2 -8 -26 -22 -53z m-65 -140
c-11 -21 -20 -35 -21 -31 0 12 33 78 38 74 2 -2 -6 -21 -17 -43z"/>
<path d="M16500 3085 c-134 -24 -275 -55 -313 -69 -118 -44 -221 -122 -309
-236 -24 -31 -28 -33 -34 -15 -43 127 -119 198 -258 244 -45 14 -100 16 -441
13 -370 -3 -396 -4 -503 -28 -137 -29 -142 -29 -142 -4 0 17 -7 20 -42 20 -24
0 -270 -5 -547 -10 -450 -9 -511 -12 -575 -29 -39 -11 -90 -25 -113 -31 -39
-10 -42 -13 -48 -53 -48 -320 -111 -476 -390 -972 -376 -668 -435 -817 -435
-1090 0 -106 8 -150 41 -255 l21 -66 97 -33 96 -33 455 -9 c250 -4 531 -8 624
-8 156 -1 168 0 161 17 -25 66 -56 196 -60 256 l-5 71 15 -75 c8 -41 23 -104
34 -140 l20 -66 138 -34 c135 -34 143 -35 376 -38 130 -2 237 0 237 5 0 4 -9
40 -20 78 -75 257 -64 538 32 877 l31 107 27 -14 c33 -17 60 -79 60 -138 0
-23 -7 -94 -15 -157 -20 -152 -20 -375 0 -476 19 -95 68 -202 98 -214 12 -5
88 -23 168 -40 144 -30 149 -30 402 -28 l256 3 -28 41 c-32 48 -59 129 -70
207 l-7 55 45 -47 c130 -133 231 -172 631 -245 319 -57 508 -64 696 -22 331
72 520 291 541 624 14 223 -50 397 -209 567 -40 43 -168 152 -288 246 -331
257 -408 350 -418 505 -5 80 12 183 35 211 12 16 14 1 10 -114 -4 -118 -3
-133 12 -133 9 0 205 14 436 30 231 16 424 30 429 30 13 0 -2 273 -20 349 -36
158 -133 290 -256 350 -160 78 -308 81 -678 16z m-2153 -513 c-18 -29 -470
-1165 -491 -1236 -50 -162 -67 -256 -73 -408 -4 -106 -9 -148 -18 -148 -7 0
-67 11 -135 25 -113 23 -145 25 -387 25 l-265 0 7 63 c18 158 64 311 152 505
l56 122 296 0 297 0 87 182 87 181 -285 -6 c-157 -3 -285 -5 -285 -3 0 2 53
108 119 237 65 129 135 277 155 330 l37 97 232 5 c128 4 268 13 312 21 100 17
107 18 102 8z m713 -135 c0 -43 -13 -99 -51 -215 -28 -86 -60 -174 -71 -195
-24 -48 -83 -114 -120 -133 -27 -14 -27 -14 -19 8 5 13 30 77 56 143 26 66 71
191 102 279 80 232 72 215 89 192 8 -12 14 -43 14 -79z m674 -494 c55 -103
128 -177 341 -343 222 -173 299 -250 346 -346 28 -56 34 -80 37 -155 3 -56 0
-107 -9 -136 -13 -48 -71 -123 -94 -123 -30 0 -47 81 -46 213 1 125 1 127 -21
127 -13 0 -99 7 -193 15 -119 10 -226 13 -357 8 l-188 -6 0 125 c0 209 -42
298 -167 355 l-54 25 90 44 c98 48 192 131 246 216 17 27 31 48 32 48 1 0 18
-30 37 -67z"/>
<path d="M5529 3028 c91 -166 134 -370 112 -536 -28 -217 -106 -397 -334 -766
-369 -599 -476 -808 -537 -1056 -6 -25 -13 -53 -16 -62 -5 -17 24 -18 523 -18
l528 1 69 27 c38 15 72 34 76 42 4 8 17 58 30 110 12 52 37 132 55 178 l33 82
-309 0 -309 0 41 83 c23 45 120 207 218 360 l176 278 252 -6 252 -6 31 43 c49
67 173 268 169 273 -14 13 -156 25 -301 25 -91 0 -173 3 -181 6 -12 4 -8 23
25 102 58 143 78 236 78 371 l0 113 339 -7 339 -7 -9 47 c-16 85 -30 129 -71
217 -39 84 -43 89 -102 122 l-61 34 -535 11 c-294 6 -554 11 -578 11 l-43 0
40 -72z"/>
<path d="M7490 3057 c0 -2 14 -35 31 -72 72 -160 92 -366 50 -527 -55 -213
-106 -302 -423 -740 -339 -468 -416 -591 -492 -778 -33 -82 -73 -228 -81 -301
l-7 -56 187 -6 187 -6 54 34 c51 33 54 37 54 77 1 57 32 197 63 278 60 159
137 289 316 534 l116 158 65 -6 c91 -10 114 -23 118 -68 4 -45 -17 -87 -118
-238 -156 -232 -232 -392 -265 -558 -19 -92 -14 -182 11 -207 13 -12 49 -15
202 -14 l187 0 23 30 c23 28 23 32 12 81 -25 101 8 265 82 412 16 32 86 149
155 260 153 245 183 304 183 369 0 41 -5 53 -29 76 l-30 28 80 32 c226 93 399
278 481 518 28 81 30 95 26 193 -7 148 -30 204 -122 296 -112 112 -236 164
-439 183 -103 10 -677 25 -677 18z m805 -466 c27 -15 30 -23 33 -75 6 -120
-82 -320 -189 -427 -84 -85 -143 -109 -264 -109 l-85 0 47 71 c108 167 179
353 190 492 l6 80 116 -7 c82 -5 125 -12 146 -25z"/>
<path d="M8940 3001 c0 -17 9 -65 21 -106 68 -250 28 -471 -139 -750 -20 -33
-149 -208 -287 -390 -363 -478 -435 -586 -482 -724 -32 -97 -30 -208 8 -286
70 -148 256 -244 475 -245 209 0 349 73 458 239 24 36 96 165 161 286 112 209
132 238 398 595 359 480 439 604 507 780 59 154 74 233 74 385 -1 77 -5 158
-10 180 l-10 40 -191 3 -191 2 -19 -31 c-19 -29 -19 -35 -6 -97 32 -145 16
-334 -42 -494 -62 -170 -113 -252 -395 -623 -268 -352 -351 -472 -441 -634
-94 -169 -170 -223 -286 -205 -110 16 -128 91 -56 235 29 58 126 194 309 434
308 405 406 548 473 689 86 180 114 293 112 460 -1 95 -26 255 -42 270 -2 2
-93 7 -201 11 l-198 7 0 -31z"/>
<path d="M10348 2967 l-37 -32 11 -90 c22 -169 -21 -385 -114 -570 -67 -131
-144 -247 -344 -510 -341 -449 -433 -595 -489 -780 -48 -157 -52 -338 -11
-437 l16 -38 175 0 175 0 -8 33 c-4 17 -7 93 -7 167 1 165 19 240 104 415 48
99 103 181 311 465 138 190 254 347 256 350 3 3 -25 -58 -61 -135 -106 -220
-185 -394 -211 -464 -82 -218 -95 -441 -34 -622 33 -98 73 -171 110 -199 35
-28 36 -28 242 -34 l206 -6 -15 47 c-20 66 -28 254 -14 335 37 212 104 339
423 795 143 206 296 433 339 505 155 258 238 522 239 756 l0 72 -175 0 c-174
0 -176 0 -234 -29 l-58 -30 -6 -138 c-12 -275 -98 -498 -304 -788 -121 -169
-119 -171 -29 28 36 80 93 253 111 337 37 171 31 374 -17 553 l-21 77 -246 0
-246 0 -37 -33z"/>
<path d="M11819 2958 l-76 -30 -7 -99 c-15 -219 -68 -389 -189 -614 -29 -55
-143 -230 -253 -390 -360 -523 -421 -631 -476 -840 -28 -107 -29 -262 -4 -367
l19 -77 58 -35 57 -34 184 -4 184 -3 -18 58 c-64 207 -31 453 97 707 37 74
203 338 234 373 4 4 -14 -57 -40 -135 -122 -369 -102 -641 66 -903 28 -44 41
-54 106 -81 74 -31 75 -31 295 -37 l221 -5 -23 73 c-64 201 -53 406 34 640 18
47 149 288 319 585 285 500 372 670 431 845 31 93 65 246 77 348 l6 57 -168 0
c-161 1 -172 -1 -274 -32 l-106 -32 -16 -116 c-18 -135 -51 -254 -111 -402
-36 -89 -130 -268 -141 -268 -2 0 8 34 21 76 68 212 98 498 72 679 l-13 90
-245 2 -245 2 -76 -31z"/>
</g>
</svg>
