<svg version="1.1" id="Layer_1" xmlns="http://www.w3.org/2000/svg" xmlns:xlink="http://www.w3.org/1999/xlink" x="0px" y="0px"
	 width="100%" viewBox="0 0 582 462" enable-background="new 0 0 582 462" xml:space="preserve">
<path fill="#FFFFFF" opacity="1.000000" stroke="none" 
	d="
M406.000000,463.000000 
	C270.698944,463.000000 135.897873,463.000000 1.048401,463.000000 
	C1.048401,309.069122 1.048401,155.138245 1.048401,1.103682 
	C194.884415,1.103682 388.768890,1.103682 582.826660,1.103682 
	C582.826660,154.999832 582.826660,308.999908 582.826660,463.000000 
	C524.138245,463.000000 465.319122,463.000000 406.000000,463.000000 
M120.000000,410.599365 
	C120.000000,417.022369 120.000000,423.445374 120.000000,429.999969 
	C121.625542,429.999969 122.613594,429.999939 123.601639,429.999939 
	C251.928177,429.999969 380.254730,430.000000 508.581268,429.999878 
	C509.414551,429.999878 510.513977,430.330261 511.021942,429.923309 
	C511.896729,429.222382 512.954468,428.074219 512.976379,427.092346 
	C513.138855,419.824585 513.064392,412.551483 513.064392,404.886230 
	C521.577515,404.886230 529.656616,404.886230 537.739258,404.886230 
	C537.739258,388.079315 537.739258,371.674408 537.739258,355.264648 
	C529.403687,355.264648 521.331177,355.264648 512.863525,355.264648 
	C512.863525,363.601105 512.863525,371.677887 512.863525,379.727417 
	C504.720490,379.727417 496.981537,379.727417 488.847595,379.727417 
	C488.847595,371.382660 488.847595,363.304504 488.847595,355.280548 
	C480.371185,355.280548 472.298187,355.280548 463.831726,355.280548 
	C463.831726,363.633514 463.831726,371.712616 463.831726,379.712463 
	C439.358490,379.712463 415.287048,379.712463 390.999878,379.712463 
	C390.999878,372.615112 390.891022,365.801331 391.049072,358.993744 
	C391.120575,355.913422 389.944702,354.873535 386.939758,354.954315 
	C381.110931,355.110931 375.267273,355.180603 369.444702,354.933807 
	C365.825134,354.780396 364.839111,356.211700 364.940460,359.611450 
	C365.141754,366.362854 365.000031,373.124451 365.000031,380.000000 
	C358.690521,380.000000 353.010620,379.674255 347.387146,380.097687 
	C342.422363,380.471497 340.497864,379.070312 340.890686,373.820221 
	C341.355896,367.602112 341.000000,361.322571 341.000000,355.000061 
	C333.640442,355.000061 326.975769,355.126648 320.319458,354.945526 
	C317.092316,354.857697 315.850769,355.918091 315.943359,359.235229 
	C316.132690,366.019653 316.000092,372.813019 316.000092,379.797668 
	C307.873138,379.797668 300.134979,379.797668 291.995972,379.797668 
	C291.995972,371.535919 291.995972,363.455719 291.995972,355.206360 
	C283.523376,355.206360 275.451904,355.206360 266.980103,355.206360 
	C266.980103,363.480469 266.980103,371.560669 266.980103,379.785706 
	C258.840271,379.785706 251.102097,379.785706 242.964188,379.785706 
	C242.964188,371.503082 242.964188,363.422943 242.964188,355.222229 
	C234.490677,355.222229 226.419113,355.222229 217.948364,355.222229 
	C217.948364,363.513306 217.948364,371.593292 217.948364,379.769836 
	C209.807663,379.769836 202.069321,379.769836 193.932510,379.769836 
	C193.932510,371.470245 193.932510,363.390778 193.932510,354.924622 
	C185.462036,354.924622 177.382553,354.924622 169.316833,354.924622 
	C169.316833,346.732208 169.316833,338.938995 169.316833,330.856384 
	C161.238037,330.856384 153.294250,330.856384 145.220367,330.856384 
	C145.220367,322.827789 145.220367,315.089600 145.220367,307.000000 
	C147.063065,307.000000 148.690613,307.000000 150.318161,307.000000 
	C171.317047,307.000000 192.317902,306.847107 213.313354,307.115631 
	C218.109329,307.176941 219.356277,305.659363 219.091675,301.128387 
	C218.726273,294.871552 219.000000,288.577423 219.000000,282.000031 
	C225.777420,282.000031 232.086395,282.207001 238.373337,281.924408 
	C242.305649,281.747620 243.183090,283.381958 243.063660,286.930420 
	C242.841644,293.527802 243.000000,300.137970 243.000000,306.999969 
	C250.161713,306.999969 256.805084,306.848053 263.436646,307.062286 
	C266.899811,307.174194 268.186462,306.064270 268.066193,302.507538 
	C267.837646,295.748474 267.999969,288.976166 267.999969,282.289124 
	C276.313324,282.289124 284.053375,282.289124 292.185486,282.289124 
	C292.185486,290.651459 292.185486,298.730957 292.185486,306.702942 
	C300.662720,306.702942 308.735962,306.702942 317.201324,306.702942 
	C317.201324,298.332245 317.201324,290.252441 317.201324,282.304565 
	C333.342834,282.304565 349.081909,282.304565 365.000000,282.304565 
	C365.000000,289.090546 365.232239,295.584412 364.915863,302.051422 
	C364.715240,306.152313 366.232635,307.289185 370.111053,307.071350 
	C375.261230,306.782074 380.451782,306.784271 385.602417,307.069336 
	C389.607086,307.290955 391.349640,306.261810 391.097046,301.836700 
	C390.722260,295.271179 391.000000,288.668396 391.000000,282.348328 
	C399.434357,282.348328 407.177399,282.348328 414.598206,282.348328 
	C414.598206,290.537628 414.598206,298.377930 414.598206,306.609039 
	C423.108856,306.609039 431.443329,306.609039 440.183228,306.609039 
	C440.183228,298.350861 440.183228,290.271332 440.183228,282.295959 
	C448.327606,282.295959 456.067780,282.295959 464.199158,282.295959 
	C464.199158,290.665619 464.199158,298.744598 464.199158,306.696106 
	C472.676910,306.696106 480.750580,306.696106 489.215027,306.696106 
	C489.215027,298.317932 489.215027,290.238892 489.215027,282.311859 
	C497.359741,282.311859 505.100494,282.311859 513.230896,282.311859 
	C513.230896,290.698334 513.230896,298.778198 513.230896,306.680237 
	C521.709045,306.680237 529.783569,306.680237 538.246704,306.680237 
	C538.246704,298.285339 538.246704,290.205658 538.246704,281.745392 
	C546.722778,281.745392 554.802429,281.745392 562.999939,281.745392 
	C562.999939,250.024277 562.948608,218.703491 563.068726,187.383347 
	C563.082825,183.708527 561.657104,182.851349 558.329895,182.943939 
	C551.582825,183.131729 544.826782,183.000015 537.696533,183.000015 
	C537.696533,174.560043 537.696533,166.815536 537.696533,158.999924 
	C530.633972,158.999924 523.968506,158.872574 517.311462,159.054688 
	C514.075867,159.143173 512.851624,158.065262 512.943481,154.756790 
	C513.132019,147.973038 513.000061,141.180405 513.000061,133.998291 
	C504.871857,133.998291 497.124634,133.998291 488.990356,133.998291 
	C488.990356,125.863647 488.990356,118.116409 488.990356,109.983337 
	C464.186646,109.983337 439.779694,109.983337 414.976349,109.983337 
	C414.976349,101.515648 414.976349,93.435463 414.976349,84.968864 
	C398.506226,84.968864 382.431244,84.968864 365.961395,84.968864 
	C365.961395,76.500183 365.961395,68.420052 365.961395,59.953918 
	C349.490784,59.953918 333.415833,59.953918 316.946411,59.953918 
	C316.946411,51.818119 316.946411,44.071121 316.946411,36.227890 
	C251.142807,36.227890 185.740128,36.227890 119.936996,36.227890 
	C119.936996,44.191620 119.936996,51.937012 119.936996,60.070477 
	C103.466080,60.070477 87.390694,60.070477 70.922073,60.070477 
	C70.922073,68.540535 70.922073,76.620117 70.922073,85.085831 
	C62.451328,85.085831 54.371674,85.085831 45.906265,85.085831 
	C45.906265,93.556511 45.906265,101.635162 45.906265,110.101639 
	C37.434925,110.101639 29.355686,110.101639 21.252377,110.101639 
	C21.252377,167.572433 21.252377,224.642151 21.252377,282.000000 
	C23.137257,282.000000 24.772982,282.000000 26.408705,282.000000 
	C39.741333,282.000000 53.073959,281.998230 66.406586,282.001801 
	C68.563889,282.002380 70.998817,281.593964 70.998466,284.958252 
	C70.997734,291.893463 70.998245,298.828644 70.998245,306.154358 
	C54.047554,306.154358 37.638802,306.154358 21.000677,306.154358 
	C21.000677,321.861328 21.045010,337.169403 20.962933,352.476807 
	C20.946693,355.505615 22.456045,356.065735 25.029114,356.031464 
	C31.958534,355.939087 38.889999,355.999878 46.204674,355.999878 
	C46.204674,364.338104 46.204674,372.084534 46.204674,380.000000 
	C53.085945,380.000000 59.579403,380.231415 66.046188,379.916016 
	C70.140060,379.716339 71.240135,381.222076 71.076286,385.105011 
	C70.798637,391.684875 70.999992,398.284943 70.999992,405.079041 
	C87.602112,405.079041 103.556244,405.079041 120.000000,405.079041 
	C120.000000,406.737457 120.000000,408.179993 120.000000,410.599365 
z"/>
<path fill="#000000" opacity="1.000000" stroke="none" 
	d="
M120.000000,410.110931 
	C120.000000,408.179993 120.000000,406.737457 120.000000,405.079041 
	C103.556244,405.079041 87.602112,405.079041 70.999992,405.079041 
	C70.999992,398.284943 70.798637,391.684875 71.076286,385.105011 
	C71.240135,381.222076 70.140060,379.716339 66.046188,379.916016 
	C59.579403,380.231415 53.085945,380.000000 46.204674,380.000000 
	C46.204674,372.084534 46.204674,364.338104 46.204674,355.999878 
	C38.889999,355.999878 31.958534,355.939087 25.029114,356.031464 
	C22.456045,356.065735 20.946693,355.505615 20.962933,352.476807 
	C21.045010,337.169403 21.000677,321.861328 21.000677,306.154358 
	C37.638802,306.154358 54.047554,306.154358 70.998245,306.154358 
	C70.998245,298.828644 70.997734,291.893463 70.998466,284.958252 
	C70.998817,281.593964 68.563889,282.002380 66.406586,282.001801 
	C53.073959,281.998230 39.741333,282.000000 26.408705,282.000000 
	C24.772982,282.000000 23.137257,282.000000 21.252377,282.000000 
	C21.252377,224.642151 21.252377,167.572433 21.252377,110.101639 
	C29.355686,110.101639 37.434925,110.101639 45.906265,110.101639 
	C45.906265,101.635162 45.906265,93.556511 45.906265,85.085831 
	C54.371674,85.085831 62.451328,85.085831 70.922073,85.085831 
	C70.922073,76.620117 70.922073,68.540535 70.922073,60.070477 
	C87.390694,60.070477 103.466080,60.070477 119.936996,60.070477 
	C119.936996,51.937012 119.936996,44.191620 119.936996,36.227890 
	C185.740128,36.227890 251.142807,36.227890 316.946411,36.227890 
	C316.946411,44.071121 316.946411,51.818119 316.946411,59.953918 
	C333.415833,59.953918 349.490784,59.953918 365.961395,59.953918 
	C365.961395,68.420052 365.961395,76.500183 365.961395,84.968864 
	C382.431244,84.968864 398.506226,84.968864 414.976349,84.968864 
	C414.976349,93.435463 414.976349,101.515648 414.976349,109.983337 
	C439.779694,109.983337 464.186646,109.983337 488.990356,109.983337 
	C488.990356,118.116409 488.990356,125.863647 488.990356,133.998291 
	C497.124634,133.998291 504.871857,133.998291 513.000061,133.998291 
	C513.000061,141.180405 513.132019,147.973038 512.943481,154.756790 
	C512.851624,158.065262 514.075867,159.143173 517.311462,159.054688 
	C523.968506,158.872574 530.633972,158.999924 537.696533,158.999924 
	C537.696533,166.815536 537.696533,174.560043 537.696533,183.000015 
	C544.826782,183.000015 551.582825,183.131729 558.329895,182.943939 
	C561.657104,182.851349 563.082825,183.708527 563.068726,187.383347 
	C562.948608,218.703491 562.999939,250.024277 562.999939,281.745392 
	C554.802429,281.745392 546.722778,281.745392 538.246704,281.745392 
	C538.246704,290.205658 538.246704,298.285339 538.246704,306.680237 
	C529.783569,306.680237 521.709045,306.680237 513.230896,306.680237 
	C513.230896,298.778198 513.230896,290.698334 513.230896,282.311859 
	C505.100494,282.311859 497.359741,282.311859 489.215027,282.311859 
	C489.215027,290.238892 489.215027,298.317932 489.215027,306.696106 
	C480.750580,306.696106 472.676910,306.696106 464.199158,306.696106 
	C464.199158,298.744598 464.199158,290.665619 464.199158,282.295959 
	C456.067780,282.295959 448.327606,282.295959 440.183228,282.295959 
	C440.183228,290.271332 440.183228,298.350861 440.183228,306.609039 
	C431.443329,306.609039 423.108856,306.609039 414.598206,306.609039 
	C414.598206,298.377930 414.598206,290.537628 414.598206,282.348328 
	C407.177399,282.348328 399.434357,282.348328 391.000000,282.348328 
	C391.000000,288.668396 390.722260,295.271179 391.097046,301.836700 
	C391.349640,306.261810 389.607086,307.290955 385.602417,307.069336 
	C380.451782,306.784271 375.261230,306.782074 370.111053,307.071350 
	C366.232635,307.289185 364.715240,306.152313 364.915863,302.051422 
	C365.232239,295.584412 365.000000,289.090546 365.000000,282.304565 
	C349.081909,282.304565 333.342834,282.304565 317.201324,282.304565 
	C317.201324,290.252441 317.201324,298.332245 317.201324,306.702942 
	C308.735962,306.702942 300.662720,306.702942 292.185486,306.702942 
	C292.185486,298.730957 292.185486,290.651459 292.185486,282.289124 
	C284.053375,282.289124 276.313324,282.289124 267.999969,282.289124 
	C267.999969,288.976166 267.837646,295.748474 268.066193,302.507538 
	C268.186462,306.064270 266.899811,307.174194 263.436646,307.062286 
	C256.805084,306.848053 250.161713,306.999969 243.000000,306.999969 
	C243.000000,300.137970 242.841644,293.527802 243.063660,286.930420 
	C243.183090,283.381958 242.305649,281.747620 238.373337,281.924408 
	C232.086395,282.207001 225.777420,282.000031 219.000000,282.000031 
	C219.000000,288.577423 218.726273,294.871552 219.091675,301.128387 
	C219.356277,305.659363 218.109329,307.176941 213.313354,307.115631 
	C192.317902,306.847107 171.317047,307.000000 150.318161,307.000000 
	C148.690613,307.000000 147.063065,307.000000 145.220367,307.000000 
	C145.220367,315.089600 145.220367,322.827789 145.220367,330.856384 
	C153.294250,330.856384 161.238037,330.856384 169.316833,330.856384 
	C169.316833,338.938995 169.316833,346.732208 169.316833,354.924622 
	C177.382553,354.924622 185.462036,354.924622 193.932510,354.924622 
	C193.932510,363.390778 193.932510,371.470245 193.932510,379.769836 
	C202.069321,379.769836 209.807663,379.769836 217.948364,379.769836 
	C217.948364,371.593292 217.948364,363.513306 217.948364,355.222229 
	C226.419113,355.222229 234.490677,355.222229 242.964188,355.222229 
	C242.964188,363.422943 242.964188,371.503082 242.964188,379.785706 
	C251.102097,379.785706 258.840271,379.785706 266.980103,379.785706 
	C266.980103,371.560669 266.980103,363.480469 266.980103,355.206360 
	C275.451904,355.206360 283.523376,355.206360 291.995972,355.206360 
	C291.995972,363.455719 291.995972,371.535919 291.995972,379.797668 
	C300.134979,379.797668 307.873138,379.797668 316.000092,379.797668 
	C316.000092,372.813019 316.132690,366.019653 315.943359,359.235229 
	C315.850769,355.918091 317.092316,354.857697 320.319458,354.945526 
	C326.975769,355.126648 333.640442,355.000061 341.000000,355.000061 
	C341.000000,361.322571 341.355896,367.602112 340.890686,373.820221 
	C340.497864,379.070312 342.422363,380.471497 347.387146,380.097687 
	C353.010620,379.674255 358.690521,380.000000 365.000031,380.000000 
	C365.000031,373.124451 365.141754,366.362854 364.940460,359.611450 
	C364.839111,356.211700 365.825134,354.780396 369.444702,354.933807 
	C375.267273,355.180603 381.110931,355.110931 386.939758,354.954315 
	C389.944702,354.873535 391.120575,355.913422 391.049072,358.993744 
	C390.891022,365.801331 390.999878,372.615112 390.999878,379.712463 
	C415.287048,379.712463 439.358490,379.712463 463.831726,379.712463 
	C463.831726,371.712616 463.831726,363.633514 463.831726,355.280548 
	C472.298187,355.280548 480.371185,355.280548 488.847595,355.280548 
	C488.847595,363.304504 488.847595,371.382660 488.847595,379.727417 
	C496.981537,379.727417 504.720490,379.727417 512.863525,379.727417 
	C512.863525,371.677887 512.863525,363.601105 512.863525,355.264648 
	C521.331177,355.264648 529.403687,355.264648 537.739258,355.264648 
	C537.739258,371.674408 537.739258,388.079315 537.739258,404.886230 
	C529.656616,404.886230 521.577515,404.886230 513.064392,404.886230 
	C513.064392,412.551483 513.138855,419.824585 512.976379,427.092346 
	C512.954468,428.074219 511.896729,429.222382 511.021942,429.923309 
	C510.513977,430.330261 509.414551,429.999878 508.581268,429.999878 
	C380.254730,430.000000 251.928177,429.999969 123.601639,429.999939 
	C122.613594,429.999939 121.625542,429.999969 120.000000,429.999969 
	C120.000000,423.445374 120.000000,417.022369 120.000000,410.110931 
M260.424500,159.000000 
	C254.664703,159.000000 248.904907,159.000000 242.765594,159.000000 
	C242.765594,150.630783 242.765594,142.886093 242.765594,135.000000 
	C236.215637,135.000000 230.038940,134.656738 223.920578,135.106628 
	C218.860504,135.478714 217.642334,133.521530 217.911148,128.858047 
	C218.270477,122.623833 218.000000,116.353310 218.000000,110.336456 
	C201.255585,110.336456 185.184250,110.336456 168.723236,110.336456 
	C168.723236,126.744537 168.723236,142.818054 168.723236,159.279938 
	C160.583786,159.279938 152.837997,159.279938 145.340240,159.279938 
	C145.340240,175.752045 145.340240,191.823502 145.340240,208.108963 
	C153.649750,208.108963 161.620117,208.108963 169.315704,208.108963 
	C169.315704,216.167603 169.315704,224.003357 169.315704,231.683685 
	C185.703751,231.683685 201.774506,231.683685 218.238419,231.683685 
	C218.238419,223.626633 218.238419,215.880722 218.238419,207.758423 
	C234.708755,207.758423 250.781891,207.758423 266.679413,207.758423 
	C266.679413,191.289261 266.679413,175.219009 266.679413,159.000000 
	C264.706635,159.000000 263.053772,159.000000 260.424500,159.000000 
M364.253632,231.943130 
	C364.483643,231.706116 364.914398,231.469513 364.914886,231.232010 
	C364.946625,215.615601 364.943604,199.999115 364.943604,183.985718 
	C356.858398,183.985718 349.112671,183.985718 340.979431,183.985718 
	C340.979431,175.518539 340.979431,167.438934 340.979431,159.212097 
	C324.509064,159.212097 308.438965,159.212097 292.212708,159.212097 
	C292.212708,183.493713 292.212708,207.562958 292.212708,231.996078 
	C316.044403,231.996078 339.665283,231.996078 364.253632,231.943130 
M112.441086,112.000000 
	C107.016190,112.000000 101.591286,112.000000 95.999947,112.000000 
	C95.999947,118.593224 95.822189,124.580994 96.066269,130.551529 
	C96.213867,134.161987 94.801430,135.161957 91.395935,135.059799 
	C84.646271,134.857300 77.886261,134.999969 70.753403,134.999969 
	C70.753403,143.382584 70.753403,151.126877 70.753403,159.041382 
	C62.718548,159.041382 55.079433,159.041382 46.845291,159.041382 
	C46.845291,175.190704 46.845291,191.155014 46.845291,207.558563 
	C62.681343,207.558563 78.674698,207.558563 95.063126,207.558563 
	C95.063126,191.466766 95.063126,175.394302 95.063126,159.397995 
	C103.498283,158.369568 111.536919,157.389496 119.527542,156.415283 
	C119.527542,141.795410 119.527542,126.981575 119.527542,112.000000 
	C117.391571,112.000000 115.407951,112.000000 112.441086,112.000000 
M487.996124,185.713943 
	C487.398407,185.143814 486.808319,184.087204 486.201782,184.077652 
	C478.920929,183.963013 471.637665,184.003555 463.964539,184.003555 
	C463.964539,192.163742 463.964539,199.909592 463.964539,208.039673 
	C455.831909,208.039673 448.086060,208.039673 440.221375,208.039673 
	C440.221375,216.176819 440.221375,223.913803 440.221375,231.781342 
	C464.510223,231.781342 488.577271,231.781342 512.779297,231.781342 
	C512.779297,223.824387 512.779297,216.087387 512.779297,207.953247 
	C504.491089,207.953247 496.412384,207.953247 487.999756,207.953247 
	C487.999756,200.600403 487.999756,193.640533 487.996124,185.713943 
z"/>
<path fill="#FFFFFF" opacity="1.000000" stroke="none" 
	d="
M260.912689,159.000000 
	C263.053772,159.000000 264.706635,159.000000 266.679413,159.000000 
	C266.679413,175.219009 266.679413,191.289261 266.679413,207.758423 
	C250.781891,207.758423 234.708755,207.758423 218.238419,207.758423 
	C218.238419,215.880722 218.238419,223.626633 218.238419,231.683685 
	C201.774506,231.683685 185.703751,231.683685 169.315704,231.683685 
	C169.315704,224.003357 169.315704,216.167603 169.315704,208.108963 
	C161.620117,208.108963 153.649750,208.108963 145.340240,208.108963 
	C145.340240,191.823502 145.340240,175.752045 145.340240,159.279938 
	C152.837997,159.279938 160.583786,159.279938 168.723236,159.279938 
	C168.723236,142.818054 168.723236,126.744537 168.723236,110.336456 
	C185.184250,110.336456 201.255585,110.336456 218.000000,110.336456 
	C218.000000,116.353310 218.270477,122.623833 217.911148,128.858047 
	C217.642334,133.521530 218.860504,135.478714 223.920578,135.106628 
	C230.038940,134.656738 236.215637,135.000000 242.765594,135.000000 
	C242.765594,142.886093 242.765594,150.630783 242.765594,159.000000 
	C248.904907,159.000000 254.664703,159.000000 260.912689,159.000000 
z"/>
<path fill="#FFFFFF" opacity="1.000000" stroke="none" 
	d="
M363.769897,231.969604 
	C339.665283,231.996078 316.044403,231.996078 292.212708,231.996078 
	C292.212708,207.562958 292.212708,183.493713 292.212708,159.212097 
	C308.438965,159.212097 324.509064,159.212097 340.979431,159.212097 
	C340.979431,167.438934 340.979431,175.518539 340.979431,183.985718 
	C349.112671,183.985718 356.858398,183.985718 364.943604,183.985718 
	C364.943604,199.999115 364.946625,215.615601 364.914886,231.232010 
	C364.914398,231.469513 364.483643,231.706116 363.769897,231.969604 
z"/>
<path fill="#FFFFFF" opacity="1.000000" stroke="none" 
	d="
M112.932709,112.000000 
	C115.407951,112.000000 117.391571,112.000000 119.527542,112.000000 
	C119.527542,126.981575 119.527542,141.795410 119.527542,156.415283 
	C111.536919,157.389496 103.498283,158.369568 95.063126,159.397995 
	C95.063126,175.394302 95.063126,191.466766 95.063126,207.558563 
	C78.674698,207.558563 62.681343,207.558563 46.845291,207.558563 
	C46.845291,191.155014 46.845291,175.190704 46.845291,159.041382 
	C55.079433,159.041382 62.718548,159.041382 70.753403,159.041382 
	C70.753403,151.126877 70.753403,143.382584 70.753403,134.999969 
	C77.886261,134.999969 84.646271,134.857300 91.395935,135.059799 
	C94.801430,135.161957 96.213867,134.161987 96.066269,130.551529 
	C95.822189,124.580994 95.999947,118.593224 95.999947,112.000000 
	C101.591286,112.000000 107.016190,112.000000 112.932709,112.000000 
z"/>
<path fill="#FFFFFF" opacity="1.000000" stroke="none" 
	d="
M487.997925,186.197296 
	C487.999756,193.640533 487.999756,200.600403 487.999756,207.953247 
	C496.412384,207.953247 504.491089,207.953247 512.779297,207.953247 
	C512.779297,216.087387 512.779297,223.824387 512.779297,231.781342 
	C488.577271,231.781342 464.510223,231.781342 440.221375,231.781342 
	C440.221375,223.913803 440.221375,216.176819 440.221375,208.039673 
	C448.086060,208.039673 455.831909,208.039673 463.964539,208.039673 
	C463.964539,199.909592 463.964539,192.163742 463.964539,184.003555 
	C471.637665,184.003555 478.920929,183.963013 486.201782,184.077652 
	C486.808319,184.087204 487.398407,185.143814 487.997925,186.197296 
z"/>
</svg>