<?xml version="1.0" standalone="no"?>
<!DOCTYPE svg PUBLIC "-//W3C//DTD SVG 20010904//EN"
 "http://www.w3.org/TR/2001/REC-SVG-20010904/DTD/svg10.dtd">
<svg version="1.0" xmlns="http://www.w3.org/2000/svg"
 width="1588.000000pt" height="1588.000000pt" viewBox="0 0 1588.000000 1588.000000"
 preserveAspectRatio="xMidYMid meet">

<g transform="translate(0.000000,1588.000000) scale(0.100000,-0.100000)"
fill="#000000" stroke="none">
<path d="M3520 12364 c-14 -3 -63 -16 -108 -30 l-84 -25 -38 -82 c-47 -101
-87 -219 -100 -301 -14 -86 -12 -277 4 -366 l14 -75 -37 -38 c-55 -59 -150
-117 -331 -204 -184 -89 -269 -147 -331 -225 -23 -29 -86 -143 -140 -253 -125
-256 -171 -310 -302 -360 -37 -14 -54 -28 -72 -59 -68 -119 -92 -314 -75 -640
16 -333 12 -531 -15 -656 -5 -22 1 -29 47 -57 29 -17 98 -48 153 -68 55 -20
139 -52 187 -72 l87 -35 29 21 c16 11 71 66 123 122 91 99 162 149 211 149 17
0 112 -158 195 -325 121 -243 167 -461 144 -677 -18 -162 -42 -234 -156 -464
-79 -157 -111 -234 -127 -300 -12 -49 -23 -91 -24 -93 -2 -2 -39 18 -84 44
-84 49 -153 75 -202 75 -113 0 -242 -172 -306 -408 -24 -90 -26 -112 -26 -307
0 -202 1 -213 27 -291 15 -44 44 -107 65 -140 l38 -59 200 0 c222 -1 263 -9
409 -82 137 -69 216 -136 514 -433 250 -249 309 -294 621 -472 333 -190 389
-227 770 -523 602 -468 934 -683 1276 -831 411 -176 701 -222 1329 -210 325 6
525 20 1160 80 143 14 356 30 474 37 270 15 751 7 911 -15 63 -9 133 -19 155
-22 22 -3 184 -32 360 -65 661 -122 913 -142 1242 -94 717 103 1211 551 1497
1359 54 151 56 159 41 183 -32 49 -46 109 -60 272 -17 187 -33 256 -71 301
-23 27 -72 60 -89 60 -3 0 -5 -84 -4 -187 1 -124 -3 -198 -11 -218 -17 -43
-23 -26 -60 155 -37 188 -81 288 -145 332 -22 15 -49 28 -60 30 -19 3 -20 -5
-27 -282 -4 -157 -10 -327 -13 -378 -7 -91 -8 -94 -30 -88 -13 3 -42 -1 -66
-10 -24 -8 -54 -12 -67 -9 -19 5 -21 10 -15 33 5 15 8 97 7 182 0 133 -4 166
-24 234 -30 101 -80 159 -131 154 l-34 -3 -11 -100 c-6 -55 -27 -154 -47 -220
-19 -66 -43 -156 -53 -200 -17 -79 -19 -81 -45 -77 -15 2 -37 -1 -49 -8 -12
-6 -24 -10 -26 -7 -2 2 3 66 12 143 28 236 6 437 -59 546 -32 52 -91 103 -108
92 -5 -3 -9 -24 -9 -47 0 -63 -24 -189 -80 -417 -28 -113 -53 -234 -56 -270
-6 -57 -9 -65 -28 -66 -11 -1 -35 -7 -53 -15 -18 -7 -35 -11 -38 -8 -3 3 1 24
9 46 8 23 22 89 30 147 46 308 -19 615 -161 767 -44 47 -118 90 -177 104 -28
6 -28 6 -22 -32 14 -83 18 -444 7 -574 -14 -166 -39 -396 -47 -428 -5 -24 -5
-24 -19 -3 -36 50 -45 131 -45 372 1 129 -3 258 -9 286 -21 107 -78 223 -139
283 -32 30 -103 70 -127 71 -7 0 -11 -66 -11 -182 -1 -101 -7 -228 -13 -283
-20 -165 -75 -493 -85 -503 -2 -2 -17 3 -33 11 -33 17 -159 43 -254 53 -36 3
-71 9 -78 13 -9 6 -9 33 -1 114 17 173 -9 367 -66 479 -42 83 -131 165 -154
141 -5 -4 -16 -87 -25 -183 -18 -206 -36 -296 -70 -367 -24 -47 -84 -113 -104
-113 -4 0 -2 33 5 73 22 118 28 302 14 387 -14 86 -47 159 -86 189 -44 34 -52
28 -59 -46 -4 -38 -11 -86 -16 -108 -13 -52 -90 -215 -101 -215 -6 0 -7 78 -3
193 12 320 -21 440 -136 487 -41 17 -45 10 -54 -104 -14 -183 -53 -354 -104
-454 -22 -44 -87 -122 -101 -122 -4 0 3 26 16 59 75 185 88 457 28 577 -23 45
-77 94 -90 81 -3 -2 -16 -58 -29 -123 -44 -216 -95 -347 -155 -398 -17 -14
-35 -26 -40 -26 -5 0 -17 -3 -27 -7 -17 -6 -17 -5 -1 13 9 11 31 49 48 85 86
185 78 424 -16 498 -44 35 -50 28 -57 -61 -14 -174 -53 -285 -115 -321 -30
-18 -38 -18 -75 -7 -23 7 -67 29 -97 49 -65 42 -278 254 -514 509 -92 100
-178 184 -190 187 -11 3 -73 14 -136 25 -612 105 -1042 215 -1343 345 -123 52
-250 118 -254 131 -2 6 19 18 46 28 125 45 307 188 421 331 62 78 146 206 255
385 88 145 204 320 211 320 3 0 22 -11 43 -24 21 -14 72 -35 112 -48 66 -20
92 -23 244 -22 150 1 199 6 415 42 359 60 535 75 672 56 l46 -6 4 -77 c3 -50
11 -88 23 -108 23 -39 59 -57 85 -43 22 12 46 76 55 145 7 49 19 75 36 75 15
0 32 -44 65 -172 42 -165 75 -237 131 -289 42 -39 45 -40 63 -24 33 30 69 140
87 264 10 67 20 121 23 121 18 -1 145 -333 178 -467 29 -117 38 -124 95 -70
50 47 68 114 74 284 4 103 2 147 -6 157 -7 8 -35 22 -62 32 -52 19 -84 44 -57
44 31 0 119 -53 158 -96 83 -90 123 -216 166 -519 14 -99 34 -220 46 -268 20
-87 20 -89 47 -82 14 3 42 19 61 34 139 110 187 396 139 835 -5 49 -7 91 -4
94 13 13 47 -38 86 -126 90 -208 123 -258 190 -292 21 -11 40 -20 43 -20 15 0
26 82 26 197 0 104 4 143 16 169 16 34 57 55 73 38 12 -13 51 -132 106 -319
108 -369 213 -637 250 -638 21 -1 66 81 84 153 14 56 22 143 30 329 11 246 25
362 41 344 27 -28 78 -221 155 -583 36 -170 69 -279 117 -380 36 -78 40 -84
53 -66 50 67 114 292 135 471 28 250 -6 560 -76 698 -24 45 0 31 51 -30 67
-82 136 -233 195 -427 81 -266 165 -466 190 -451 17 11 60 225 68 347 24 321
-41 581 -172 694 -22 19 -38 36 -35 38 2 2 24 -5 48 -17 37 -18 51 -34 84 -95
85 -156 163 -402 268 -839 l63 -263 34 33 c61 59 107 167 134 312 23 123 15
522 -15 775 -14 118 -24 217 -21 219 11 11 59 -120 168 -456 25 -78 60 -172
76 -209 28 -61 88 -164 97 -164 9 0 27 64 45 160 40 216 35 585 -12 820 -12
56 -19 104 -17 106 8 8 182 54 204 54 30 0 31 -5 37 -280 6 -289 21 -354 96
-425 37 -35 41 -32 69 65 28 93 38 155 65 427 23 223 53 397 76 432 24 40 70
-66 70 -162 0 -33 -7 -120 -16 -194 -16 -129 -14 -221 6 -253 7 -11 13 -12 35
-2 18 9 36 34 60 86 34 75 34 75 76 78 l43 3 34 95 c59 166 74 236 81 380 l6
135 44 3 c60 4 135 55 127 86 -2 11 -10 50 -16 86 -52 307 -145 691 -225 937
-98 299 -193 491 -307 617 -121 134 -220 172 -773 301 -133 31 -315 87 -535
165 -339 120 -528 160 -752 160 l-141 0 -71 39 c-86 47 -116 54 -153 40 -15
-6 -83 -19 -151 -29 l-122 -18 -56 33 c-73 44 -184 80 -309 101 -84 14 -168
17 -528 15 -471 -2 -483 -1 -673 59 -245 78 -327 86 -1159 105 -335 8 -623 16
-640 19 -16 3 -82 10 -145 17 -255 25 -496 94 -881 250 -123 49 -253 99 -289
110 -95 29 -292 36 -443 15 -157 -22 -321 -23 -373 -1 -24 9 -73 51 -124 105
-100 104 -126 115 -260 108 -139 -8 -236 -56 -432 -211 -211 -168 -278 -202
-383 -201 -104 1 -202 70 -259 182 -28 55 -56 155 -56 199 0 23 -7 33 -27 43
-30 13 -132 22 -173 14z m2289 -1047 c101 -128 179 -182 280 -194 49 -5 49 -6
86 -74 46 -83 109 -167 278 -369 281 -336 371 -520 370 -755 0 -127 -8 -171
-69 -425 -59 -238 -77 -376 -69 -502 l6 -98 -35 0 c-100 0 -247 58 -332 131
-160 139 -238 338 -314 804 -10 65 -18 121 -16 123 2 1 41 -11 87 -28 57 -20
101 -30 141 -30 54 0 58 2 58 23 0 39 -37 133 -70 182 -37 53 -121 122 -200
164 -30 16 -136 59 -235 96 -99 37 -215 85 -258 107 -130 67 -220 164 -252
270 -14 48 -14 49 15 91 17 23 61 111 100 195 78 171 111 224 172 276 46 40
127 75 175 75 27 1 38 -8 82 -62z m-1661 -173 c58 -29 91 -66 123 -138 24 -54
27 -160 10 -281 -33 -224 -5 -345 189 -820 77 -189 120 -312 160 -462 17 -65
67 -211 110 -324 88 -229 125 -348 141 -453 12 -78 6 -205 -14 -263 -10 -32
-19 -39 -66 -55 -30 -10 -100 -27 -155 -37 -184 -35 -323 -44 -605 -38 -286 7
-436 24 -457 52 -7 9 -17 44 -23 78 -22 126 26 280 140 449 55 82 86 120 250
313 254 299 327 403 382 543 25 65 30 91 31 172 1 83 -2 100 -22 132 -50 80
-176 149 -352 192 -274 67 -563 58 -707 -20 -27 -15 -71 -39 -100 -54 -67 -37
-154 -55 -207 -44 -34 8 -41 14 -49 44 -5 19 -7 66 -4 104 4 60 13 86 75 210
39 77 77 163 84 189 12 46 15 49 91 87 43 22 169 99 280 172 395 259 561 319
695 252z m3209 -50 c57 -8 184 -33 281 -55 500 -111 528 -117 887 -169 154
-23 339 -53 410 -67 514 -102 718 -315 717 -749 -1 -428 -239 -847 -564 -993
-113 -51 -192 -63 -434 -69 -302 -6 -553 26 -672 87 -102 52 -383 311 -461
425 -78 113 -92 260 -45 471 14 66 33 149 41 185 21 94 21 250 0 330 -25 93
-68 157 -185 276 -107 109 -166 189 -196 268 -18 46 -18 48 0 61 25 19 93 19
221 -1z m4623 -288 c30 -9 182 -43 338 -76 516 -111 705 -187 850 -345 84 -92
125 -175 156 -317 8 -37 1 -37 -181 8 -479 116 -735 211 -949 353 -152 100
-277 255 -300 371 -6 28 -5 32 12 27 10 -3 44 -13 74 -21z m-1454 -507 c84
-30 152 -83 192 -149 28 -48 32 -63 32 -126 0 -102 -45 -191 -154 -300 -132
-131 -254 -190 -375 -182 -81 6 -136 33 -187 91 -125 142 -98 418 57 583 103
108 273 140 435 83z m3138 -1322 c17 -12 18 -24 11 -130 -4 -65 -11 -114 -16
-111 -5 3 -7 33 -3 67 7 73 -8 142 -36 160 -11 6 -20 15 -20 19 0 13 45 9 64
-5z m-7567 -1583 c-3 -42 -2 -87 3 -100 8 -21 6 -25 -16 -30 -45 -11 -172 6
-399 53 -200 41 -236 46 -389 49 -94 3 -171 6 -173 8 -9 9 149 57 216 66 43 6
175 8 325 4 197 -4 267 -2 326 9 123 24 114 29 107 -59z m-2122 -19 c50 -13
134 -30 189 -38 133 -22 140 -30 39 -51 -32 -7 -87 -11 -121 -8 -46 3 -68 0
-87 -12 -23 -15 -28 -15 -53 -1 -61 33 -92 76 -92 127 0 15 4 18 18 12 9 -4
58 -17 107 -29z m-19 -961 c110 -37 164 -115 164 -236 0 -79 -14 -99 -82 -120
-71 -21 -231 -15 -308 12 -117 41 -383 186 -377 205 5 13 90 62 152 87 158 65
346 86 451 52z m1904 -1479 c73 -19 224 -82 315 -132 216 -117 355 -200 355
-211 0 -43 -116 -192 -151 -192 -38 0 -182 60 -247 104 -114 76 -226 206 -320
374 -46 81 -45 81 48 57z"/>
</g>
</svg>
